0
SECTION
2
HEADER
9
$INSUNITS
70
4
9
$ACADVER
1
AC1014
9
$HANDSEED
5
FFFF
0
ENDSEC
0
SECTION
2
TABLES
0
TABLE
2
VPORT
5
8
100
AcDbSymbolTable
0
ENDTAB
0
TABLE
2
LTYPE
5
5
100
AcDbSymbolTable
0
LTYPE
5
14
100
AcDbSymbolTableRecord
100
AcDbLinetypeTableRecord
2
BYBLOCK
70
0
0
LTYPE
5
15
100
AcDbSymbolTableRecord
100
AcDbLinetypeTableRecord
2
BYLAYER
70
0
0
LTYPE
5
16
100
AcDbSymbolTableRecord
100
AcDbLinetypeTableRecord
2
DASHED
70
0
3
Dashed __ __ __ __ __ __ __ __ __ __ __ __ __ _
72
65
73
2
40
0.75
49
0.5
74
0
49
-0.25
74
0
0
ENDTAB
0
TABLE
2
LAYER
5
2
100
AcDbSymbolTable
70
2
0
LAYER
5
50
100
AcDbSymbolTableRecord
100
AcDbLayerTableRecord
2
0
70
0
62
7
6
CONTINUOUS
0
ENDTAB
0
TABLE
2
STYLE
5
3
100
AcDbSymbolTable
70
1
0
STYLE
5
11
100
AcDbSymbolTableRecord
100
AcDbTextStyleTableRecord
2
STANDARD
70
0
0
ENDTAB
0
TABLE
2
VIEW
5
6
100
AcDbSymbolTable
70
0
0
ENDTAB
0
TABLE
2
UCS
5
7
100
AcDbSymbolTable
70
0
0
ENDTAB
0
TABLE
2
APPID
5
9
100
AcDbSymbolTable
70
2
0
APPID
5
12
100
AcDbSymbolTableRecord
100
AcDbRegAppTableRecord
2
ACAD
70
0
0
ENDTAB
0
TABLE
2
DIMSTYLE
5
A
100
AcDbSymbolTable
70
1
0
ENDTAB
0
TABLE
2
BLOCK_RECORD
5
1
100
AcDbSymbolTable
70
1
0
BLOCK_RECORD
5
1F
100
AcDbSymbolTableRecord
100
AcDbBlockTableRecord
2
*MODEL_SPACE
0
BLOCK_RECORD
5
1B
100
AcDbSymbolTableRecord
100
AcDbBlockTableRecord
2
*PAPER_SPACE
0
ENDTAB
0
ENDSEC
0
SECTION
2
BLOCKS
0
BLOCK
5
20
100
AcDbEntity
100
AcDbBlockBegin
2
*MODEL_SPACE
0
ENDBLK
5
21
100
AcDbEntity
100
AcDbBlockEnd
0
BLOCK
5
1C
100
AcDbEntity
100
AcDbBlockBegin
2
*PAPER_SPACE
0
ENDBLK
5
1D
100
AcDbEntity
100
AcDbBlockEnd
0
ENDSEC
0
SECTION
2
ENTITIES
0
LINE
5
100
100
AcDbEntity
8
OUTER_PROFILES
100
AcDbLine
10
1101.9095573684681
20
48.819114736934921
30
0
11
1100.1000000000004
21
48.819114736934921
31
0
0
LINE
5
101
100
AcDbEntity
8
OUTER_PROFILES
100
AcDbLine
10
1100.1000000000004
20
48.819114736934921
30
0
11
1100.1000000000004
21
0
31
0
0
LINE
5
102
100
AcDbEntity
8
OUTER_PROFILES
100
AcDbLine
10
1100.1000000000004
20
0
30
0
11
0
21
0
31
0
0
LINE
5
103
100
AcDbEntity
8
OUTER_PROFILES
100
AcDbLine
10
0
20
0
30
0
11
5.9119376061289586e-14
21
48.819114736934353
31
0
0
LINE
5
104
100
AcDbEntity
8
OUTER_PROFILES
100
AcDbLine
10
5.9119376061289586e-14
20
48.819114736934353
30
0
11
-1.8095573684675634
21
48.819114736934495
31
0
0
LINE
5
105
100
AcDbEntity
8
OUTER_PROFILES
100
AcDbLine
10
-1.8095573684675634
20
48.819114736934495
30
0
11
-1.8095573684677049
21
47.219114736934671
31
0
0
LINE
5
106
100
AcDbEntity
8
OUTER_PROFILES
100
AcDbLine
10
-1.8095573684677049
20
47.219114736934671
30
0
11
-85.628672105403055
21
47.21911473692785
31
0
0
LINE
5
107
100
AcDbEntity
8
OUTER_PROFILES
100
AcDbLine
10
-85.628672105403055
20
47.21911473692785
30
0
11
-85.628672105402771
21
116.92669092462751
31
0
0
LINE
5
108
100
AcDbEntity
8
OUTER_PROFILES
100
AcDbLine
10
-85.628672105402771
20
116.92669092462751
30
0
11
-52.228672105471034
21
130.76142390799646
31
0
0
SPLINE
5
109
100
AcDbEntity
8
OUTER_PROFILES
100
AcDbSpline
70
0
71
3
72
8
73
4
74
0
42
0.000000001
43
0.0000000001
44
0.0000000001
40
1.5707963271451582
40
1.5707963271451582
40
1.5707963271451582
40
1.5707963271451582
40
3.1415926535897314
40
3.1415926535897314
40
3.1415926535897314
40
3.1415926535897314
10
-52.228672105471034
20
130.76142390799646
30
0
10
-51.625486316116486
20
130.93492927923364
30
0
10
-51.022300526536682
20
131.09279475777896
30
0
10
-50.419114736934404
20
131.09279475777896
30
0
0
LINE
5
110
100
AcDbEntity
8
OUTER_PROFILES
100
AcDbLine
10
-50.419114736934418
20
131.09279475777893
30
0
11
-27.019114736935354
21
131.09279475778223
31
0
0
SPLINE
5
111
100
AcDbEntity
8
OUTER_PROFILES
100
AcDbSpline
70
0
71
3
72
8
73
4
74
0
42
0.000000001
43
0.0000000001
44
0.0000000001
40
1.5707963267948963
40
1.5707963267948963
40
1.5707963267948963
40
1.5707963267948963
40
3.1415926535897931
40
3.1415926535897931
40
3.1415926535897931
40
3.1415926535897931
10
-25.209557369134878
20
131.75553645757915
30
0
10
-25.812743158623718
20
131.40852571502748
30
0
10
-26.41592894779496
20
131.09279475778223
30
0
10
-27.019114736935354
20
131.09279475778223
30
0
0
LINE
5
112
100
AcDbEntity
8
OUTER_PROFILES
100
AcDbLine
10
-25.209557369134878
20
131.75553645757915
30
0
11
-1.8095573684674449
21
141.44813381711373
31
0
0
LINE
5
113
100
AcDbEntity
8
OUTER_PROFILES
100
AcDbLine
10
-1.8095573684674449
20
141.44813381711373
30
0
11
3.6637359812630166e-14
21
141.5563730371376
31
0
0
LINE
5
114
100
AcDbEntity
8
OUTER_PROFILES
100
AcDbLine
10
3.6637359812630166e-14
20
141.5563730371376
30
0
11
3.6331722387161851e-14
21
142.46115172137166
31
0
0
LINE
5
115
100
AcDbEntity
8
OUTER_PROFILES
100
AcDbLine
10
3.6331722387161851e-14
20
142.46115172137166
30
0
11
-1.8095573684680133
21
142.56939094140563
31
0
0
LINE
5
116
100
AcDbEntity
8
OUTER_PROFILES
100
AcDbLine
10
-1.8095573684680133
20
142.56939094140563
30
0
11
-25.20955736847305
21
152.26198830091505
31
0
0
SPLINE
5
117
100
AcDbEntity
8
OUTER_PROFILES
100
AcDbSpline
70
0
71
3
72
8
73
4
74
0
42
0.000000001
43
0.0000000001
44
0.0000000001
40
1.5707963269137011
40
1.5707963269137011
40
1.5707963269137011
40
1.5707963269137011
40
3.1415926535895609
40
3.1415926535895609
40
3.1415926535895609
40
3.1415926535895609
10
-25.20955736847305
20
152.26198830091505
30
0
10
-25.812743157917183
20
152.60899904344043
30
0
10
-26.415928947423623
20
152.92473000063339
30
0
10
-27.019114736936224
20
152.92473000063353
30
0
0
LINE
5
118
100
AcDbEntity
8
OUTER_PROFILES
100
AcDbLine
10
-27.019114736936224
20
152.92473000063356
30
0
11
-50.419114736933238
21
152.92473000033539
31
0
0
SPLINE
5
119
100
AcDbEntity
8
OUTER_PROFILES
100
AcDbSpline
70
0
71
3
72
8
73
4
74
0
42
0.000000001
43
0.0000000001
44
0.0000000001
40
1.5707963267949108
40
1.5707963267949108
40
1.5707963267949108
40
1.5707963267949108
40
3.1415926535891008
40
3.1415926535891008
40
3.1415926535891008
40
3.1415926535891008
10
-52.228672104364726
20
153.25610085023413
30
0
10
-51.625486314875758
20
153.08259547895815
30
0
10
-51.022300525879928
20
152.92473000033553
30
0
10
-50.419114736933238
20
152.92473000033539
30
0
0
LINE
5
120
100
AcDbEntity
8
OUTER_PROFILES
100
AcDbLine
10
-52.228672104364726
20
153.25610085023413
30
0
11
-85.628672105399801
21
167.0908338338981
31
0
0
LINE
5
121
100
AcDbEntity
8
OUTER_PROFILES
100
AcDbLine
10
-85.628672105399801
20
167.0908338338981
30
0
11
-85.628672105399829
21
258.4442279090519
31
0
0
LINE
5
122
100
AcDbEntity
8
OUTER_PROFILES
100
AcDbLine
10
-85.628672105399829
20
258.4442279090519
30
0
11
-52.228672105626295
21
272.27896089268489
31
0
0
SPLINE
5
123
100
AcDbEntity
8
OUTER_PROFILES
100
AcDbSpline
70
0
71
3
72
8
73
4
74
0
42
0.000000001
43
0.0000000001
44
0.0000000001
40
1.5707963272299177
40
1.5707963272299177
40
1.5707963272299177
40
1.5707963272299177
40
3.1415926535897736
40
3.1415926535897736
40
3.1415926535897736
40
3.1415926535897736
10
-52.228672105626295
20
272.27896089268489
30
0
10
-51.625486316304929
20
272.45246626391281
30
0
10
-51.022300526636911
20
272.6103317424396
30
0
10
-50.419114736934141
20
272.6103317424396
30
0
0
LINE
5
124
100
AcDbEntity
8
OUTER_PROFILES
100
AcDbLine
10
-50.419114736934148
20
272.6103317424396
30
0
11
-27.019114736936057
21
272.61033174221808
31
0
0
SPLINE
5
125
100
AcDbEntity
8
OUTER_PROFILES
100
AcDbSpline
70
0
71
3
72
8
73
4
74
0
42
0.000000001
43
0.0000000001
44
0.0000000001
40
1.5707963267948974
40
1.5707963267948974
40
1.5707963267948974
40
1.5707963267948974
40
3.141592653589794
40
3.141592653589794
40
3.141592653589794
40
3.141592653589794
10
-25.209557369173364
20
273.27307344250636
30
0
10
-25.81274315866224
20
272.92606269995423
30
0
10
-26.415928947814926
20
272.61033174270841
30
0
10
-27.019114736934952
20
272.61033174270841
30
0
0
LINE
5
126
100
AcDbEntity
8
OUTER_PROFILES
100
AcDbLine
10
-25.209557369173364
20
273.27307344250636
30
0
11
-1.8095573684680488
21
282.96567080154978
31
0
0
LINE
5
127
100
AcDbEntity
8
OUTER_PROFILES
100
AcDbLine
10
-1.8095573684680488
20
282.96567080154978
30
0
11
1.9428902930940239e-15
21
283.07391002157453
31
0
0
LINE
5
128
100
AcDbEntity
8
OUTER_PROFILES
100
AcDbLine
10
1.9428902930940239e-15
20
283.07391002157453
30
0
11
1.8391616947452943e-15
21
283.97868870580857
31
0
0
LINE
5
129
100
AcDbEntity
8
OUTER_PROFILES
100
AcDbLine
10
1.8391616947452943e-15
20
283.97868870580857
30
0
11
-1.8095573684670521
21
284.08692792584213
31
0
0
LINE
5
130
100
AcDbEntity
8
OUTER_PROFILES
100
AcDbLine
10
-1.8095573684670521
20
284.08692792584213
30
0
11
-25.20955736846695
21
293.7795252853673
31
0
0
SPLINE
5
131
100
AcDbEntity
8
OUTER_PROFILES
100
AcDbSpline
70
0
71
3
72
8
73
4
74
0
42
0.000000001
43
0.0000000001
44
0.0000000001
40
1.5707963267948966
40
1.5707963267948966
40
1.5707963267948966
40
1.5707963267948966
40
3.1415926535897931
40
3.1415926535897931
40
3.1415926535897931
40
3.1415926535897931
10
-25.209557369341535
20
293.77952528537253
30
0
10
-25.812743158831232
20
294.1265360279242
30
0
10
-26.415928947903936
20
294.44226698516951
30
0
10
-27.019114736936434
20
294.44226698516951
30
0
0
LINE
5
132
100
AcDbEntity
8
OUTER_PROFILES
100
AcDbLine
10
-27.019114736936434
20
294.44226698516945
30
0
11
-50.419114736937871
21
294.4422669851611
31
0
0
SPLINE
5
133
100
AcDbEntity
8
OUTER_PROFILES
100
AcDbSpline
70
0
71
3
72
8
73
4
74
0
42
0.000000001
43
0.0000000001
44
0.0000000001
40
1.5707963267948841
40
1.5707963267948841
40
1.5707963267948841
40
1.5707963267948841
40
3.1415926535872893
40
3.1415926535872893
40
3.1415926535872893
40
3.1415926535872893
10
-52.228672102126701
20
294.77363783505575
30
0
10
-51.625486312636248
20
294.6001324637802
30
0
10
-51.022300524707767
20
294.44226698515769
30
0
10
-50.419114736935896
20
294.44226698515729
30
0
0
LINE
5
134
100
AcDbEntity
8
OUTER_PROFILES
100
AcDbLine
10
-52.228672102126701
20
294.77363783505575
30
0
11
-85.628672105404107
21
308.60837081832676
31
0
0
LINE
5
135
100
AcDbEntity
8
OUTER_PROFILES
100
AcDbLine
10
-85.628672105404107
20
308.60837081832676
30
0
11
-85.628672105404178
21
859.44900659329664
31
0
0
LINE
5
136
100
AcDbEntity
8
OUTER_PROFILES
100
AcDbLine
10
-85.628672105404178
20
859.44900659329664
30
0
11
-52.228672105404925
21
873.28373957654958
31
0
0
SPLINE
5
137
100
AcDbEntity
8
OUTER_PROFILES
100
AcDbSpline
70
0
71
3
72
8
73
4
74
0
42
0.000000001
43
0.0000000001
44
0.0000000001
40
1.5707963298527177
40
1.5707963298527177
40
1.5707963298527177
40
1.5707963298527177
40
3.1415926535896896
40
3.1415926535896896
40
3.1415926535896896
40
3.1415926535896896
10
-52.228672105696248
20
873.28373957756298
30
0
10
-51.625486317383881
20
873.45724494849662
30
0
10
-51.022300527254103
20
873.61511042644838
30
0
10
-50.419114736942007
20
873.61511042644815
30
0
0
LINE
5
138
100
AcDbEntity
8
OUTER_PROFILES
100
AcDbLine
10
-50.419114736942021
20
873.61511042644815
30
0
11
-27.019114736936565
21
873.61511042645077
31
0
0
SPLINE
5
139
100
AcDbEntity
8
OUTER_PROFILES
100
AcDbSpline
70
0
71
3
72
8
73
4
74
0
42
0.000000001
43
0.0000000001
44
0.0000000001
40
1.5707963267948968
40
1.5707963267948968
40
1.5707963267948968
40
1.5707963267948968
40
3.1415926535897931
40
3.1415926535897931
40
3.1415926535897931
40
3.1415926535897931
10
-25.209557369341567
20
874.27785212624781
30
0
10
-25.812743158831289
20
873.93084138369613
30
0
10
-26.415928947904014
20
873.61511042645077
30
0
10
-27.019114736936565
20
873.61511042645077
30
0
0
LINE
5
140
100
AcDbEntity
8
OUTER_PROFILES
100
AcDbLine
10
-25.209557369341567
20
874.27785212624781
30
0
11
-1.8095573684672006
21
883.97044948578366
31
0
0
LINE
5
141
100
AcDbEntity
8
OUTER_PROFILES
100
AcDbLine
10
-1.8095573684672006
20
883.97044948578366
30
0
11
-2.8643754035329039e-13
21
884.07868870580864
31
0
0
LINE
5
142
100
AcDbEntity
8
OUTER_PROFILES
100
AcDbLine
10
-2.8643754035329039e-13
20
884.07868870580864
30
0
11
-2.8675436708523971e-13
21
884.98346739004228
31
0
0
LINE
5
143
100
AcDbEntity
8
OUTER_PROFILES
100
AcDbLine
10
-2.8675436708523971e-13
20
884.98346739004228
30
0
11
-1.8095573684676269
21
885.09170661007613
31
0
0
LINE
5
144
100
AcDbEntity
8
OUTER_PROFILES
100
AcDbLine
10
-1.8095573684676269
20
885.09170661007613
30
0
11
-25.209557368466953
21
894.78430396960209
31
0
0
SPLINE
5
145
100
AcDbEntity
8
OUTER_PROFILES
100
AcDbSpline
70
0
71
3
72
8
73
4
74
0
42
0.000000001
43
0.0000000001
44
0.0000000001
40
1.5707963267949003
40
1.5707963267949003
40
1.5707963267949003
40
1.5707963267949003
40
3.1415926535897931
40
3.1415926535897931
40
3.1415926535897931
40
3.1415926535897931
10
-25.209557368893041
20
894.78430396942429
30
0
10
-25.812743158382034
20
895.13131471197642
30
0
10
-26.415928947668124
20
895.44704566922189
30
0
10
-27.019114736934654
20
895.44704566922189
30
0
0
LINE
5
146
100
AcDbEntity
8
OUTER_PROFILES
100
AcDbLine
10
-27.019114736934654
20
895.44704566922189
30
0
11
-50.4191147369351
21
895.44704566939299
31
0
0
SPLINE
5
147
100
AcDbEntity
8
OUTER_PROFILES
100
AcDbSpline
70
0
71
3
72
8
73
4
74
0
42
0.000000001
43
0.0000000001
44
0.0000000001
40
1.5707963267947858
40
1.5707963267947858
40
1.5707963267947858
40
1.5707963267947858
40
3.1415926535885097
40
3.1415926535885097
40
3.1415926535885097
40
3.1415926535885097
10
-52.228672104012162
20
895.77841651960114
30
0
10
-51.625486314522355
20
895.60491114832575
30
0
10
-51.022300525694426
20
895.44704566970358
30
0
10
-50.419114736932976
20
895.44704566970324
30
0
0
LINE
5
148
100
AcDbEntity
8
OUTER_PROFILES
100
AcDbLine
10
-52.228672104012162
20
895.77841651960114
30
0
11
-85.628672105401691
21
909.61314950257031
31
0
0
LINE
5
149
100
AcDbEntity
8
OUTER_PROFILES
100
AcDbLine
10
-85.628672105401691
20
909.61314950257031
30
0
11
-85.628672105401222
21
1000.9665435777321
31
0
0
LINE
5
150
100
AcDbEntity
8
OUTER_PROFILES
100
AcDbLine
10
-85.628672105401222
20
1000.9665435777321
30
0
11
-52.228672105427208
21
1014.8012765610272
31
0
0
SPLINE
5
151
100
AcDbEntity
8
OUTER_PROFILES
100
AcDbSpline
70
0
71
3
72
8
73
4
74
0
42
0.000000001
43
0.0000000001
44
0.0000000001
40
1.5707963277360173
40
1.5707963277360173
40
1.5707963277360173
40
1.5707963277360173
40
3.1415926535897554
40
3.1415926535897554
40
3.1415926535897554
40
3.1415926535897554
10
-52.228672105427208
20
1014.8012765610272
30
0
10
-51.625486316300091
20
1014.9747819321988
30
0
10
-51.022300526643946
20
1015.1326474106133
30
0
10
-50.419114736934702
20
1015.1326474106133
30
0
0
LINE
5
152
100
AcDbEntity
8
OUTER_PROFILES
100
AcDbLine
10
-50.419114736934709
20
1015.1326474106133
30
0
11
-27.019114736935613
21
1015.1326474109201
31
0
0
SPLINE
5
153
100
AcDbEntity
8
OUTER_PROFILES
100
AcDbSpline
70
0
71
3
72
8
73
4
74
0
42
0.000000001
43
0.0000000001
44
0.0000000001
40
1.5707963268416629
40
1.5707963268416629
40
1.5707963268416629
40
1.5707963268416629
40
3.1415926535897936
40
3.1415926535897936
40
3.1415926535897936
40
3.1415926535897936
10
-25.20955736846544
20
1015.7953891106861
30
0
10
-25.812743157937131
20
1015.4483783681449
30
0
10
-26.415928947435056
20
1015.1326474109201
30
0
10
-27.019114736935613
20
1015.1326474109201
30
0
0
LINE
5
154
100
AcDbEntity
8
OUTER_PROFILES
100
AcDbLine
10
-25.20955736846544
20
1015.7953891106861
30
0
11
-1.809557368467658
21
1025.4879864702209
31
0
0
LINE
5
155
100
AcDbEntity
8
OUTER_PROFILES
100
AcDbLine
10
-1.809557368467658
20
1025.4879864702209
30
0
11
-3.9218628344883655e-13
21
1025.5962256902453
31
0
0
LINE
5
156
100
AcDbEntity
8
OUTER_PROFILES
100
AcDbLine
10
-3.9218628344883655e-13
20
1025.5962256902453
30
0
11
-3.9230120135367526e-13
21
1026.5010043744794
31
0
0
LINE
5
157
100
AcDbEntity
8
OUTER_PROFILES
100
AcDbLine
10
-3.9230120135367526e-13
20
1026.5010043744794
30
0
11
-1.8095573684679245
21
1026.609243594512
31
0
0
LINE
5
158
100
AcDbEntity
8
OUTER_PROFILES
100
AcDbLine
10
-1.8095573684679245
20
1026.609243594512
30
0
11
-25.209557368477999
21
1036.30184095404
31
0
0
SPLINE
5
159
100
AcDbEntity
8
OUTER_PROFILES
100
AcDbSpline
70
0
71
3
72
8
73
4
74
0
42
0.000000001
43
0.0000000001
44
0.0000000001
40
1.5707963267948906
40
1.5707963267948906
40
1.5707963267948906
40
1.5707963267948906
40
3.1415926535897891
40
3.1415926535897891
40
3.1415926535897891
40
3.1415926535897891
10
-25.209557368477999
20
1036.30184095404
30
0
10
-25.81274315796723
20
1036.6488516965915
30
0
10
-26.415928947450972
20
1036.9645826538367
30
0
10
-27.019114736934426
20
1036.9645826538367
30
0
0
LINE
5
160
100
AcDbEntity
8
OUTER_PROFILES
100
AcDbLine
10
-27.019114736934426
20
1036.9645826538367
30
0
11
-50.419114736932599
21
1036.9645826538247
31
0
0
SPLINE
5
161
100
AcDbEntity
8
OUTER_PROFILES
100
AcDbSpline
70
0
71
3
72
8
73
4
74
0
42
0.000000001
43
0.0000000001
44
0.0000000001
40
1.5707963267948966
40
1.5707963267948966
40
1.5707963267948966
40
1.5707963267948966
40
3.1415926535897984
40
3.1415926535897984
40
3.1415926535897984
40
3.1415926535897984
10
-52.228672105363771
20
1037.295953503723
30
0
10
-51.625486315874639
20
1037.1224481324473
30
0
10
-51.022300526402844
20
1036.9645826538247
30
0
10
-50.419114736932599
20
1036.9645826538247
30
0
0
LINE
5
162
100
AcDbEntity
8
OUTER_PROFILES
100
AcDbLine
10
-52.228672105363771
20
1037.295953503723
30
0
11
-85.628672105397243
21
1051.1306864869919
31
0
0
LINE
5
163
100
AcDbEntity
8
OUTER_PROFILES
100
AcDbLine
10
-85.628672105397243
20
1051.1306864869919
30
0
11
-85.628672105397769
21
1120.8382626746759
31
0
0
LINE
5
164
100
AcDbEntity
8
OUTER_PROFILES
100
AcDbLine
10
-85.628672105397769
20
1120.8382626746759
30
0
11
-1.8095573684679778
21
1120.8382626746868
31
0
0
LINE
5
165
100
AcDbEntity
8
OUTER_PROFILES
100
AcDbLine
10
-1.8095573684679778
20
1120.8382626746868
30
0
11
-1.8095573684679753
21
1119.2382626746826
31
0
0
LINE
5
166
100
AcDbEntity
8
OUTER_PROFILES
100
AcDbLine
10
-1.8095573684679753
20
1119.2382626746826
30
0
11
-4.1494585545365226e-13
21
1119.2382626746826
31
0
0
LINE
5
167
100
AcDbEntity
8
OUTER_PROFILES
100
AcDbLine
10
-4.1494585545365226e-13
20
1119.2382626746826
30
0
11
-4.2632564145606011e-13
21
1168.0573774116183
31
0
0
LINE
5
168
100
AcDbEntity
8
OUTER_PROFILES
100
AcDbLine
10
-4.2632564145606011e-13
20
1168.0573774116183
30
0
11
1100.1000000000001
21
1168.0573774116183
31
0
0
LINE
5
169
100
AcDbEntity
8
OUTER_PROFILES
100
AcDbLine
10
1100.1000000000001
20
1168.0573774116183
30
0
11
1100.1000000000001
21
1119.2382626746833
31
0
0
LINE
5
170
100
AcDbEntity
8
OUTER_PROFILES
100
AcDbLine
10
1100.1000000000001
20
1119.2382626746833
30
0
11
1101.9095573684681
21
1119.238262674683
31
0
0
LINE
5
171
100
AcDbEntity
8
OUTER_PROFILES
100
AcDbLine
10
1101.9095573684681
20
1119.238262674683
30
0
11
1101.9095573684681
21
1120.8382626746829
31
0
0
LINE
5
172
100
AcDbEntity
8
OUTER_PROFILES
100
AcDbLine
10
1101.9095573684681
20
1120.8382626746829
30
0
11
1185.7286721054109
21
1120.838262674692
31
0
0
LINE
5
173
100
AcDbEntity
8
OUTER_PROFILES
100
AcDbLine
10
1185.7286721054109
20
1120.838262674692
30
0
11
1185.7286721054124
21
1051.1306864869989
31
0
0
LINE
5
174
100
AcDbEntity
8
OUTER_PROFILES
100
AcDbLine
10
1185.7286721054124
20
1051.1306864869989
30
0
11
1152.3286721053828
21
1037.2959535037451
31
0
0
SPLINE
5
175
100
AcDbEntity
8
OUTER_PROFILES
100
AcDbSpline
70
0
71
3
72
8
73
4
74
0
42
0.000000001
43
0.0000000001
44
0.0000000001
40
1.5707963267949017
40
1.5707963267949017
40
1.5707963267949017
40
1.5707963267949017
40
3.1415926535897771
40
3.1415926535897771
40
3.1415926535897771
40
3.1415926535897771
10
1152.3286721053828
20
1037.2959535037451
30
0
10
1151.7254863158937
20
1037.1224481324693
30
0
10
1151.1223005264194
20
1036.9645826538467
30
0
10
1150.5191147369467
20
1036.9645826538467
30
0
0
LINE
5
176
100
AcDbEntity
8
OUTER_PROFILES
100
AcDbLine
10
1150.5191147369467
20
1036.9645826538467
30
0
11
1127.1191147369493
21
1036.9645826538354
31
0
0
SPLINE
5
177
100
AcDbEntity
8
OUTER_PROFILES
100
AcDbSpline
70
0
71
3
72
8
73
4
74
0
42
0.000000001
43
0.0000000001
44
0.0000000001
40
1.5707963268162073
40
1.5707963268162073
40
1.5707963268162073
40
1.5707963268162073
40
3.1415926535886389
40
3.1415926535886389
40
3.1415926535886389
40
3.1415926535886389
10
1125.3095573684768
20
1036.3018409540523
30
0
10
1125.9127431579582
20
1036.648851696599
30
0
10
1126.5159289474534
20
1036.9645826538349
30
0
10
1127.1191147369493
20
1036.9645826538354
30
0
0
LINE
5
178
100
AcDbEntity
8
OUTER_PROFILES
100
AcDbLine
10
1125.3095573684768
20
1036.3018409540523
30
0
11
1101.9095573684681
21
1026.6092435945004
31
0
0
LINE
5
179
100
AcDbEntity
8
OUTER_PROFILES
100
AcDbLine
10
1101.9095573684681
20
1026.6092435945004
30
0
11
1100.0999999999997
21
1026.5010043744801
31
0
0
LINE
5
180
100
AcDbEntity
8
OUTER_PROFILES
100
AcDbLine
10
1100.0999999999997
20
1026.5010043744801
30
0
11
1100.0999999999997
21
1025.5962256902458
31
0
0
LINE
5
181
100
AcDbEntity
8
OUTER_PROFILES
100
AcDbLine
10
1100.0999999999997
20
1025.5962256902458
30
0
11
1101.9095573684676
21
1025.4879864702127
31
0
0
LINE
5
182
100
AcDbEntity
8
OUTER_PROFILES
100
AcDbLine
10
1101.9095573684676
20
1025.4879864702127
30
0
11
1125.3095573684677
21
1015.7953891106882
31
0
0
SPLINE
5
183
100
AcDbEntity
8
OUTER_PROFILES
100
AcDbSpline
70
0
71
3
72
8
73
4
74
0
42
0.000000001
43
0.0000000001
44
0.0000000001
40
1.5707963267948906
40
1.5707963267948906
40
1.5707963267948906
40
1.5707963267948906
40
3.1415926535897931
40
3.1415926535897931
40
3.1415926535897931
40
3.1415926535897931
10
1125.309557368498
20
1015.7953891106741
30
0
10
1125.9127431579875
20
1015.4483783681226
30
0
10
1126.5159289474625
20
1015.1326474108773
30
0
10
1127.1191147369359
20
1015.1326474108773
30
0
0
LINE
5
184
100
AcDbEntity
8
OUTER_PROFILES
100
AcDbLine
10
1127.1191147369357
20
1015.1326474108773
30
0
11
1150.5191147369333
21
1015.1326474110623
31
0
0
SPLINE
5
185
100
AcDbEntity
8
OUTER_PROFILES
100
AcDbSpline
70
0
71
3
72
8
73
4
74
0
42
0.000000001
43
0.0000000001
44
0.0000000001
40
1.5707963267949003
40
1.5707963267949003
40
1.5707963267949003
40
1.5707963267949003
40
3.1415926535894485
40
3.1415926535894485
40
3.1415926535894485
40
3.1415926535894485
10
1152.3286721047341
20
1014.8012765611635
30
0
10
1151.7254863152448
20
1014.9747819324393
30
0
10
1151.1223005260733
20
1015.1326474110622
30
0
10
1150.5191147369333
20
1015.1326474110623
30
0
0
LINE
5
186
100
AcDbEntity
8
OUTER_PROFILES
100
AcDbLine
10
1152.3286721047341
20
1014.8012765611635
30
0
11
1185.7286721053999
21
1000.9665435777338
31
0
0
LINE
5
187
100
AcDbEntity
8
OUTER_PROFILES
100
AcDbLine
10
1185.7286721053999
20
1000.9665435777338
30
0
11
1185.7286721054002
21
909.61314950256747
31
0
0
LINE
5
188
100
AcDbEntity
8
OUTER_PROFILES
100
AcDbLine
10
1185.7286721054002
20
909.61314950256747
30
0
11
1152.3286721054012
21
895.77841651931362
31
0
0
SPLINE
5
189
100
AcDbEntity
8
OUTER_PROFILES
100
AcDbSpline
70
0
71
3
72
8
73
4
74
0
42
0.000000001
43
0.0000000001
44
0.0000000001
40
1.5707963273216106
40
1.5707963273216106
40
1.5707963273216106
40
1.5707963273216106
40
3.1415926535898042
40
3.1415926535898042
40
3.1415926535898042
40
3.1415926535898042
10
1152.3286721056111
20
895.77841651896176
30
0
10
1151.725486316325
20
895.60491114774413
30
0
10
1151.1223005266495
20
895.44704566923758
30
0
10
1150.5191147369349
20
895.44704566923758
30
0
0
LINE
5
190
100
AcDbEntity
8
OUTER_PROFILES
100
AcDbLine
10
1150.5191147369351
20
895.44704566923758
30
0
11
1127.1191147369352
21
895.44704566925714
31
0
0
SPLINE
5
191
100
AcDbEntity
8
OUTER_PROFILES
100
AcDbSpline
70
0
71
3
72
8
73
4
74
0
42
0.000000001
43
0.0000000001
44
0.0000000001
40
1.5707963267948963
40
1.5707963267948963
40
1.5707963267948963
40
1.5707963267948963
40
3.1415926535897931
40
3.1415926535897931
40
3.1415926535897931
40
3.1415926535897931
10
1125.3095573687958
20
894.78430396945964
30
0
10
1125.9127431582849
20
895.13131471201166
30
0
10
1126.5159289476176
20
895.44704566925714
30
0
10
1127.1191147369352
20
895.44704566925714
30
0
0
LINE
5
192
100
AcDbEntity
8
OUTER_PROFILES
100
AcDbLine
10
1125.3095573687958
20
894.78430396945964
30
0
11
1101.9095573684676
21
885.0917066100676
31
0
0
LINE
5
193
100
AcDbEntity
8
OUTER_PROFILES
100
AcDbLine
10
1101.9095573684676
20
885.0917066100676
30
0
11
1100.0999999999999
21
884.98346739004273
31
0
0
LINE
5
194
100
AcDbEntity
8
OUTER_PROFILES
100
AcDbLine
10
1100.0999999999999
20
884.98346739004273
30
0
11
1100.0999999999999
21
884.07868870580933
31
0
0
LINE
5
195
100
AcDbEntity
8
OUTER_PROFILES
100
AcDbLine
10
1100.0999999999999
20
884.07868870580933
30
0
11
1101.9095573684669
21
883.97044948577559
31
0
0
LINE
5
196
100
AcDbEntity
8
OUTER_PROFILES
100
AcDbLine
10
1101.9095573684669
20
883.97044948577559
30
0
11
1125.3095573684668
21
874.27785212625065
31
0
0
SPLINE
5
197
100
AcDbEntity
8
OUTER_PROFILES
100
AcDbSpline
70
0
71
3
72
8
73
4
74
0
42
0.000000001
43
0.0000000001
44
0.0000000001
40
1.5707963267948966
40
1.5707963267948966
40
1.5707963267948966
40
1.5707963267948966
40
3.1415926535897931
40
3.1415926535897931
40
3.1415926535897931
40
3.1415926535897931
10
1125.3095573693217
20
874.27785212624599
30
0
10
1125.9127431588113
20
873.93084138369431
30
0
10
1126.5159289478938
20
873.61511042644895
30
0
10
1127.1191147369368
20
873.61511042644895
30
0
0
LINE
5
198
100
AcDbEntity
8
OUTER_PROFILES
100
AcDbLine
10
1127.1191147369366
20
873.61511042644895
30
0
11
1150.5191147369374
21
873.61511042646487
31
0
0
SPLINE
5
199
100
AcDbEntity
8
OUTER_PROFILES
100
AcDbSpline
70
0
71
3
72
8
73
4
74
0
42
0.000000001
43
0.0000000001
44
0.0000000001
40
1.5707963267948601
40
1.5707963267948601
40
1.5707963267948601
40
1.5707963267948601
40
3.141592653589671
40
3.141592653589671
40
3.141592653589671
40
3.141592653589671
10
1152.3286721051484
20
873.2837395765664
30
0
10
1151.7254863156591
20
873.45724494784224
30
0
10
1151.1223005262921
20
873.61511042646487
30
0
10
1150.5191147369374
20
873.61511042646487
30
0
0
LINE
5
200
100
AcDbEntity
8
OUTER_PROFILES
100
AcDbLine
10
1152.3286721051484
20
873.2837395765664
30
0
11
1185.7286721054043
21
859.44900659329892
31
0
0
LINE
5
201
100
AcDbEntity
8
OUTER_PROFILES
100
AcDbLine
10
1185.7286721054043
20
859.44900659329892
30
0
11
1185.7286721054045
21
308.60837081832807
31
0
0
LINE
5
202
100
AcDbEntity
8
OUTER_PROFILES
100
AcDbLine
10
1185.7286721054045
20
308.60837081832807
30
0
11
1152.3286721054342
21
294.77363783502017
31
0
0
SPLINE
5
203
100
AcDbEntity
8
OUTER_PROFILES
100
AcDbSpline
70
0
71
3
72
8
73
4
74
0
42
0.000000001
43
0.0000000001
44
0.0000000001
40
1.5707963269493679
40
1.5707963269493679
40
1.5707963269493679
40
1.5707963269493679
40
3.1415926535898482
40
3.1415926535898482
40
3.1415926535898482
40
3.1415926535898482
10
1152.3286721054342
20
294.77363783502017
30
0
10
1151.7254863160044
20
294.60013246376138
30
0
10
1151.122300526476
20
294.44226698517286
30
0
10
1150.5191147369376
20
294.44226698517286
30
0
0
LINE
5
204
100
AcDbEntity
8
OUTER_PROFILES
100
AcDbLine
10
1150.5191147369378
20
294.44226698517286
30
0
11
1127.119114736937
21
294.44226698516644
31
0
0
SPLINE
5
205
100
AcDbEntity
8
OUTER_PROFILES
100
AcDbSpline
70
0
71
3
72
8
73
4
74
0
42
0.000000001
43
0.0000000001
44
0.0000000001
40
1.5707963267948966
40
1.5707963267948966
40
1.5707963267948966
40
1.5707963267948966
40
3.1415926535897931
40
3.1415926535897931
40
3.1415926535897931
40
3.1415926535897931
10
1125.309557369322
20
293.77952528536946
30
0
10
1125.9127431588117
20
294.12653602792113
30
0
10
1126.5159289478941
20
294.44226698516644
30
0
10
1127.119114736937
20
294.44226698516644
30
0
0
LINE
5
206
100
AcDbEntity
8
OUTER_PROFILES
100
AcDbLine
10
1125.309557369322
20
293.77952528536946
30
0
11
1101.9095573684672
21
284.08692792583446
31
0
0
LINE
5
207
100
AcDbEntity
8
OUTER_PROFILES
100
AcDbLine
10
1101.9095573684672
20
284.08692792583446
30
0
11
1100.1000000000001
21
283.97868870580913
31
0
0
LINE
5
208
100
AcDbEntity
8
OUTER_PROFILES
100
AcDbLine
10
1100.1000000000001
20
283.97868870580913
30
0
11
1100.1000000000001
21
283.07391002157522
31
0
0
LINE
5
209
100
AcDbEntity
8
OUTER_PROFILES
100
AcDbLine
10
1100.1000000000001
20
283.07391002157522
30
0
11
1101.9095573684681
21
282.96567080154205
31
0
0
LINE
5
210
100
AcDbEntity
8
OUTER_PROFILES
100
AcDbLine
10
1101.9095573684681
20
282.96567080154205
30
0
11
1125.3095573684684
21
273.27307344201722
31
0
0
SPLINE
5
211
100
AcDbEntity
8
OUTER_PROFILES
100
AcDbSpline
70
0
71
3
72
8
73
4
74
0
42
0.000000001
43
0.0000000001
44
0.0000000001
40
1.570796326794893
40
1.570796326794893
40
1.570796326794893
40
1.570796326794893
40
3.1415926535897891
40
3.1415926535897891
40
3.1415926535897891
40
3.1415926535897891
10
1125.3095573694559
20
273.27307344270139
30
0
10
1125.9127431589445
20
272.92606270014909
30
0
10
1126.5159289479625
20
272.61033174290304
30
0
10
1127.119114736935
20
272.61033174290304
30
0
0
LINE
5
212
100
AcDbEntity
8
OUTER_PROFILES
100
AcDbLine
10
1127.1191147369348
20
272.6103317429031
30
0
11
1150.5191147369364
21
272.61033174269471
31
0
0
SPLINE
5
213
100
AcDbEntity
8
OUTER_PROFILES
100
AcDbSpline
70
0
71
3
72
8
73
4
74
0
42
0.000000001
43
0.0000000001
44
0.0000000001
40
1.5707963277814396
40
1.5707963277814396
40
1.5707963277814396
40
1.5707963277814396
40
3.1415926535897865
40
3.1415926535897865
40
3.1415926535897865
40
3.1415926535897865
10
1152.3286721056322
20
272.27896089312264
30
0
10
1151.7254863165224
20
272.45246626428616
30
0
10
1151.122300526762
20
272.61033174269471
30
0
10
1150.5191147369364
20
272.61033174269471
30
0
0
LINE
5
214
100
AcDbEntity
8
OUTER_PROFILES
100
AcDbLine
10
1152.3286721056322
20
272.27896089312264
30
0
11
1185.7286721054013
21
258.44422790906083
31
0
0
LINE
5
215
100
AcDbEntity
8
OUTER_PROFILES
100
AcDbLine
10
1185.7286721054013
20
258.44422790906083
30
0
11
1185.7286721054018
21
167.0908338338937
31
0
0
LINE
5
216
100
AcDbEntity
8
OUTER_PROFILES
100
AcDbLine
10
1185.7286721054018
20
167.0908338338937
30
0
11
1152.3286721054021
21
153.25610085063317
31
0
0
SPLINE
5
217
100
AcDbEntity
8
OUTER_PROFILES
100
AcDbSpline
70
0
71
3
72
8
73
4
74
0
42
0.000000001
43
0.0000000001
44
0.0000000001
40
1.5707963267949199
40
1.5707963267949199
40
1.5707963267949199
40
1.5707963267949199
40
3.1415926535886829
40
3.1415926535886829
40
3.1415926535886829
40
3.1415926535886829
10
1152.3286721037018
20
153.2561008500042
30
0
10
1151.7254863142123
20
153.08259547872822
30
0
10
1151.1223005255331
20
152.92473000010517
30
0
10
1150.5191147369346
20
152.92473000010503
30
0
0
LINE
5
218
100
AcDbEntity
8
OUTER_PROFILES
100
AcDbLine
10
1150.5191147369346
20
152.92473000010506
30
0
11
1127.1191147369375
21
152.92473000072647
31
0
0
SPLINE
5
219
100
AcDbEntity
8
OUTER_PROFILES
100
AcDbSpline
70
0
71
3
72
8
73
4
74
0
42
0.000000001
43
0.0000000001
44
0.0000000001
40
1.5707963272005907
40
1.5707963272005907
40
1.5707963272005907
40
1.5707963272005907
40
3.1415926535893006
40
3.1415926535893006
40
3.1415926535893006
40
3.1415926535893006
10
1125.3095573684877
20
152.26198830086446
30
0
10
1125.9127431578218
20
152.60899904332675
30
0
10
1126.5159289473693
20
152.92473000039308
30
0
10
1127.1191147369375
20
152.92473000039323
30
0
0
LINE
5
220
100
AcDbEntity
8
OUTER_PROFILES
100
AcDbLine
10
1125.3095573684877
20
152.26198830086446
30
0
11
1101.9095573684681
21
142.5693909413971
31
0
0
LINE
5
221
100
AcDbEntity
8
OUTER_PROFILES
100
AcDbLine
10
1101.9095573684681
20
142.5693909413971
30
0
11
1100.1000000000004
21
142.46115172137209
31
0
0
LINE
5
222
100
AcDbEntity
8
OUTER_PROFILES
100
AcDbLine
10
1100.1000000000004
20
142.46115172137209
30
0
11
1100.1000000000004
21
141.55637303713817
31
0
0
LINE
5
223
100
AcDbEntity
8
OUTER_PROFILES
100
AcDbLine
10
1100.1000000000004
20
141.55637303713817
30
0
11
1101.9095573684681
21
141.44813381710563
31
0
0
LINE
5
224
100
AcDbEntity
8
OUTER_PROFILES
100
AcDbLine
10
1101.9095573684681
20
141.44813381710563
30
0
11
1125.3095573684661
21
131.75553645757901
31
0
0
SPLINE
5
225
100
AcDbEntity
8
OUTER_PROFILES
100
AcDbSpline
70
0
71
3
72
8
73
4
74
0
42
0.000000001
43
0.0000000001
44
0.0000000001
40
1.5707963267948977
40
1.5707963267948977
40
1.5707963267948977
40
1.5707963267948977
40
3.141592653589794
40
3.141592653589794
40
3.141592653589794
40
3.141592653589794
10
1125.3095573690823
20
131.75553645757759
30
0
10
1125.9127431585714
20
131.40852571502592
30
0
10
1126.5159289477665
20
131.09279475778067
30
0
10
1127.1191147369334
20
131.09279475778067
30
0
0
LINE
5
226
100
AcDbEntity
8
OUTER_PROFILES
100
AcDbLine
10
1127.1191147369334
20
131.09279475778064
30
0
11
1150.5191147369324
21
131.09279475779019
31
0
0
SPLINE
5
227
100
AcDbEntity
8
OUTER_PROFILES
100
AcDbSpline
70
0
71
3
72
8
73
4
74
0
42
0.000000001
43
0.0000000001
44
0.0000000001
40
1.5707963267948637
40
1.5707963267948637
40
1.5707963267948637
40
1.5707963267948637
40
3.1415926535897523
40
3.1415926535897523
40
3.1415926535897523
40
3.1415926535897523
10
1152.3286721053096
20
130.76142390789173
30
0
10
1151.72548631582
20
130.93492927916756
30
0
10
1151.1223005263739
20
131.09279475779019
30
0
10
1150.5191147369324
20
131.09279475779019
30
0
0
LINE
5
228
100
AcDbEntity
8
OUTER_PROFILES
100
AcDbLine
10
1152.3286721053096
20
130.76142390789173
30
0
11
1185.7286721053979
21
116.92669092462197
31
0
0
LINE
5
229
100
AcDbEntity
8
OUTER_PROFILES
100
AcDbLine
10
1185.7286721053979
20
116.92669092462197
30
0
11
1185.7286721053988
21
47.219114736942345
31
0
0
LINE
5
230
100
AcDbEntity
8
OUTER_PROFILES
100
AcDbLine
10
1185.7286721053988
20
47.219114736942345
30
0
11
1101.9095573684681
21
47.219114736930976
31
0
0
LINE
5
231
100
AcDbEntity
8
OUTER_PROFILES
100
AcDbLine
10
1101.9095573684681
20
47.219114736930976
30
0
11
1101.9095573684681
21
48.819114736934921
31
0
0
CIRCLE
5
232
100
AcDbEntity
8
INTERIOR_PROFILES
100
AcDbCircle
10
-203.22912535176476
20
1108.9407694591237
30
0
40
2.7500000000000568
210
0
220
0
230
-1
0
CIRCLE
5
233
100
AcDbEntity
8
INTERIOR_PROFILES
100
AcDbCircle
10
-1169.0286721054542
20
584.02868870581415
30
0
40
3.5000000000000142
210
0
220
0
230
-1
0
CIRCLE
5
234
100
AcDbEntity
8
INTERIOR_PROFILES
100
AcDbCircle
10
-1169.0286721054317
20
212.76753087145053
30
0
40
3.4999999999999929
210
0
220
0
230
-1
0
CIRCLE
5
235
100
AcDbEntity
8
INTERIOR_PROFILES
100
AcDbCircle
10
68.913139337102663
20
66.915403883450324
30
0
40
3.4999999999999964
210
0
220
0
230
-1
0
CIRCLE
5
236
100
AcDbEntity
8
INTERIOR_PROFILES
100
AcDbCircle
10
68.928672105413256
20
584.02868870582154
30
0
40
3.5000000000000142
210
0
220
0
230
-1
0
CIRCLE
5
237
100
AcDbEntity
8
INTERIOR_PROFILES
100
AcDbCircle
10
-203.22912535176528
20
59.11660795249702
30
0
40
2.7500000000000036
210
0
220
0
230
-1
0
CIRCLE
5
238
100
AcDbEntity
8
INTERIOR_PROFILES
100
AcDbCircle
10
68.928672105401802
20
212.76753087148279
30
0
40
3.500000000000012
210
0
220
0
230
-1
0
CIRCLE
5
239
100
AcDbEntity
8
INTERIOR_PROFILES
100
AcDbCircle
10
68.928672105403678
20
955.28984654015846
30
0
40
3.5000000000000249
210
0
220
0
230
-1
0
CIRCLE
5
240
100
AcDbEntity
8
INTERIOR_PROFILES
100
AcDbCircle
10
-1169.0286721054374
20
955.28984654018063
30
0
40
3.4999999999999676
210
0
220
0
230
-1
0
CIRCLE
5
241
100
AcDbEntity
8
INTERIOR_PROFILES
100
AcDbCircle
10
-549.89579201843139
20
1108.9407694591239
30
0
40
2.7500000000000568
210
0
220
0
230
-1
0
CIRCLE
5
242
100
AcDbEntity
8
INTERIOR_PROFILES
100
AcDbCircle
10
-1169.028672105454
20
809.02868870581415
30
0
40
3.4999999999999432
210
0
220
0
230
-1
0
CIRCLE
5
243
100
AcDbEntity
8
INTERIOR_PROFILES
100
AcDbCircle
10
-203.22912535176528
20
13.102506784440777
30
0
40
2.7499999999999991
210
0
220
0
230
-1
0
CIRCLE
5
244
100
AcDbEntity
8
INTERIOR_PROFILES
100
AcDbCircle
10
-549.89579201843196
20
59.116607952497162
30
0
40
2.7500000000000036
210
0
220
0
230
-1
0
CIRCLE
5
245
100
AcDbEntity
8
INTERIOR_PROFILES
100
AcDbCircle
10
-1169.0286721054542
20
359.02868870581415
30
0
40
3.5000000000000142
210
0
220
0
230
-1
0
CIRCLE
5
246
100
AcDbEntity
8
INTERIOR_PROFILES
100
AcDbCircle
10
-896.56245868509836
20
13.102506784441346
30
0
40
2.7499999999999991
210
0
220
0
230
-1
0
CIRCLE
5
247
100
AcDbEntity
8
INTERIOR_PROFILES
100
AcDbCircle
10
-896.56245868509802
20
1154.9548706271764
30
0
40
2.7500000000000568
210
0
220
0
230
-1
0
CIRCLE
5
248
100
AcDbEntity
8
INTERIOR_PROFILES
100
AcDbCircle
10
69.001036268034341
20
1101.1419735281543
30
0
40
3.4999999999999964
210
0
220
0
230
-1
0
CIRCLE
5
249
100
AcDbEntity
8
INTERIOR_PROFILES
100
AcDbCircle
10
-1169.0131393371016
20
66.91540388341167
30
0
40
3.4999999999999432
210
0
220
0
230
-1
0
CIRCLE
5
250
100
AcDbEntity
8
INTERIOR_PROFILES
100
AcDbCircle
10
68.928672105415615
20
359.02868870582154
30
0
40
3.5000000000000142
210
0
220
0
230
-1
0
CIRCLE
5
251
100
AcDbEntity
8
INTERIOR_PROFILES
100
AcDbCircle
10
-203.22912535176476
20
1154.9548706271758
30
0
40
2.7500000000000568
210
0
220
0
230
-1
0
CIRCLE
5
252
100
AcDbEntity
8
INTERIOR_PROFILES
100
AcDbCircle
10
-1069.8957920184314
20
1108.9407694591241
30
0
40
2.7500000000000568
210
0
220
0
230
-1
0
CIRCLE
5
253
100
AcDbEntity
8
INTERIOR_PROFILES
100
AcDbCircle
10
-549.89579201843196
20
13.102506784440919
30
0
40
2.7499999999999991
210
0
220
0
230
-1
0
CIRCLE
5
254
100
AcDbEntity
8
INTERIOR_PROFILES
100
AcDbCircle
10
68.928672105410897
20
809.02868870582154
30
0
40
3.4999999999999432
210
0
220
0
230
-1
0
CIRCLE
5
255
100
AcDbEntity
8
INTERIOR_PROFILES
100
AcDbCircle
10
-1169.1010362680515
20
1101.1419735281956
30
0
40
3.4999999999999432
210
0
220
0
230
-1
0
CIRCLE
5
256
100
AcDbEntity
8
INTERIOR_PROFILES
100
AcDbCircle
10
-549.89579201843139
20
1154.9548706271762
30
0
40
2.7500000000000568
210
0
220
0
230
-1
0
CIRCLE
5
257
100
AcDbEntity
8
INTERIOR_PROFILES
100
AcDbCircle
10
-896.56245868509802
20
1108.9407694591241
30
0
40
2.7500000000000568
210
0
220
0
230
-1
0
CIRCLE
5
258
100
AcDbEntity
8
INTERIOR_PROFILES
100
AcDbCircle
10
-896.56245868509836
20
59.116607952497446
30
0
40
2.7500000000000036
210
0
220
0
230
-1
0
CIRCLE
5
259
100
AcDbEntity
8
INTERIOR_PROFILES
100
AcDbCircle
10
-1069.8957920184318
20
13.102506784441346
30
0
40
2.7499999999999991
210
0
220
0
230
-1
0
CIRCLE
5
260
100
AcDbEntity
8
INTERIOR_PROFILES
100
AcDbCircle
10
-1069.8957920184318
20
59.116607952497588
30
0
40
2.7500000000000036
210
0
220
0
230
-1
0
CIRCLE
5
261
100
AcDbEntity
8
INTERIOR_PROFILES
100
AcDbCircle
10
-1069.8957920184314
20
1154.9548706271764
30
0
40
2.7500000000000568
210
0
220
0
230
-1
0
CIRCLE
5
262
100
AcDbEntity
8
INTERIOR_PROFILES
100
AcDbCircle
10
-29.895792018431901
20
59.11660795249702
30
0
40
2.7500000000000036
210
0
220
0
230
-1
0
CIRCLE
5
263
100
AcDbEntity
8
INTERIOR_PROFILES
100
AcDbCircle
10
-723.22912535176465
20
1154.9548706271762
30
0
40
2.7500000000000568
210
0
220
0
230
-1
0
CIRCLE
5
264
100
AcDbEntity
8
INTERIOR_PROFILES
100
AcDbCircle
10
-376.56245868509865
20
59.116607952497162
30
0
40
2.7500000000000036
210
0
220
0
230
-1
0
CIRCLE
5
265
100
AcDbEntity
8
INTERIOR_PROFILES
100
AcDbCircle
10
-376.56245868509814
20
1154.9548706271758
30
0
40
2.7500000000000568
210
0
220
0
230
-1
0
CIRCLE
5
266
100
AcDbEntity
8
INTERIOR_PROFILES
100
AcDbCircle
10
-29.895792018431436
20
1108.9407694591237
30
0
40
2.7500000000000568
210
0
220
0
230
-1
0
CIRCLE
5
267
100
AcDbEntity
8
INTERIOR_PROFILES
100
AcDbCircle
10
-723.22912535176511
20
13.102506784441061
30
0
40
2.7499999999999991
210
0
220
0
230
-1
0
CIRCLE
5
268
100
AcDbEntity
8
INTERIOR_PROFILES
100
AcDbCircle
10
-723.22912535176465
20
1108.9407694591241
30
0
40
2.7500000000000568
210
0
220
0
230
-1
0
CIRCLE
5
269
100
AcDbEntity
8
INTERIOR_PROFILES
100
AcDbCircle
10
-376.56245868509859
20
13.102506784440919
30
0
40
2.7499999999999991
210
0
220
0
230
-1
0
CIRCLE
5
270
100
AcDbEntity
8
INTERIOR_PROFILES
100
AcDbCircle
10
-376.56245868509808
20
1108.9407694591237
30
0
40
2.7500000000000568
210
0
220
0
230
-1
0
CIRCLE
5
271
100
AcDbEntity
8
INTERIOR_PROFILES
100
AcDbCircle
10
-29.895792018431916
20
13.102506784440635
30
0
40
2.7499999999999991
210
0
220
0
230
-1
0
CIRCLE
5
272
100
AcDbEntity
8
INTERIOR_PROFILES
100
AcDbCircle
10
-29.895792018431422
20
1154.9548706271755
30
0
40
2.7500000000000568
210
0
220
0
230
-1
0
CIRCLE
5
273
100
AcDbEntity
8
INTERIOR_PROFILES
100
AcDbCircle
10
-723.22912535176511
20
59.116607952497304
30
0
40
2.7500000000000036
210
0
220
0
230
-1
0
LINE
5
274
100
AcDbEntity
8
BEND
100
AcDbLine
10
1151.4238934211792
20
1120.8382626746991
30
3.0601546122387463e-11
11
1151.4238934211812
21
1037.061638928699
31
-2.8180680855184287e-12
0
LINE
5
275
100
AcDbEntity
8
BEND
100
AcDbLine
10
-51.323893421148981
20
1037.061638928674
30
2.8072434110284425e-12
11
-51.323893421149265
21
1120.8382626746672
31
3.3647399101293842e-11
0
LINE
5
276
100
AcDbEntity
8
BEND
100
AcDbLine
10
-51.323893421169167
20
47.219114736919181
30
-4.8061961612987997e-12
11
-51.323893421169025
21
130.99573848299897
31
2.3645784227973497e-10
0
LINE
5
277
100
AcDbEntity
8
BEND
100
AcDbLine
10
1151.4238934211219
20
130.99573848293844
30
-1.3021156459701663e-11
11
1151.4238934211223
21
47.219114736950161
31
2.2764437832251847e-11
0
LINE
5
278
100
AcDbEntity
8
BEND
100
AcDbLine
10
1126.2143360527157
20
1036.770470104148
30
9.432838414417424e-13
11
1126.2143360527134
21
1120.8382626746836
31
4.690336291384553e-11
0
LINE
5
279
100
AcDbEntity
8
BEND
100
AcDbLine
10
-26.114336052700811
20
1120.8382626746823
30
3.0748070037889597e-11
11
-26.114336052700487
21
1036.7704701041382
31
2.8706332254197823e-11
0
LINE
5
280
100
AcDbEntity
8
BEND
100
AcDbLine
10
1100.1000000000004
20
1143.7525987273848
30
3.1749717911370931e-11
11
-7.1054273576010019e-13
21
1143.7525987273843
31
3.1891114147586369e-11
0
LINE
5
281
100
AcDbEntity
8
BEND
100
AcDbLine
10
1151.4238934208347
20
1015.0355911361861
30
-3.2332793673092047e-10
11
1151.4238934208347
21
895.54410194390005
31
4.1868365432854554e-10
0
LINE
5
282
100
AcDbEntity
8
BEND
100
AcDbLine
10
-51.323893420474192
20
895.54410194460979
30
-6.442800014872308e-10
11
-51.323893420474
21
1015.0355911360667
31
5.7037656828292532e-10
0
LINE
5
283
100
AcDbEntity
8
BEND
100
AcDbLine
10
1151.4238934213895
20
272.5132754679986
30
6.9657150594707547e-10
11
1151.4238934213897
21
153.0217862752427
31
-8.1804192872510965e-10
0
LINE
5
284
100
AcDbEntity
8
BEND
100
AcDbLine
10
-26.11433605270318
20
131.28690730766863
30
6.7545676324236117e-10
11
-26.114336052703294
21
47.219114736934671
31
1.2579677721732569e-11
0
LINE
5
285
100
AcDbEntity
8
BEND
100
AcDbLine
10
1126.2143360527
20
47.219114736935239
30
1.3870828394159397e-11
11
1126.2143360526998
21
131.28690730765328
31
6.271190617372517e-10
0
LINE
5
286
100
AcDbEntity
8
BEND
100
AcDbLine
10
-2.1872284688010256e-13
20
24.304778684233526
30
8.4845973450048006e-12
11
1100.1000000000008
21
24.304778684234236
31
8.0177141851886515e-12
0
LINE
5
287
100
AcDbEntity
8
BEND
100
AcDbLine
10
-51.323893420650904
20
153.02178627522721
30
-4.8513355546567877e-10
11
-51.323893420650741
21
272.51327546780146
31
3.8676358235619672e-10
0
LINE
5
288
100
AcDbEntity
8
BEND
100
AcDbLine
10
1101.004778684234
20
1026.5551239844901
30
2.5860881005487209e-11
11
1101.004778684234
21
1119.238262674683
31
4.6367772018273916e-11
0
LINE
5
289
100
AcDbEntity
8
BEND
100
AcDbLine
10
-0.90477868423424335
20
1119.2382626746826
30
3.251246365831896e-11
11
-0.90477868423419883
21
1026.5551239844958
31
1.7453288133422646e-11
0
LINE
5
290
100
AcDbEntity
8
BEND
100
AcDbLine
10
1100.1000000000004
20
1120.1430413589176
30
2.8326384509775318e-11
11
-7.1054273576010019e-13
21
1120.1430413589169
31
2.854565355713867e-11
0
LINE
5
291
100
AcDbEntity
8
BEND
100
AcDbLine
10
1126.2143360527016
20
895.25293311946734
30
3.5037931950406206e-10
11
1126.2143360527016
21
1015.3267599605816
31
4.5016917473011227e-11
0
LINE
5
292
100
AcDbEntity
8
BEND
100
AcDbLine
10
-26.114336052700935
20
1015.3267599605998
30
-3.6986951891653471e-11
11
-26.114336052700917
21
895.25293311940402
31
4.4858435349474731e-10
0
LINE
5
293
100
AcDbEntity
8
BEND
100
AcDbLine
10
1151.4238934210434
20
873.51805415160607
30
-7.4860578931322857e-11
11
1151.4238934210437
21
294.53932325996476
31
1.5276817025181683e-10
0
LINE
5
294
100
AcDbEntity
8
BEND
100
AcDbLine
10
1126.2143360527023
20
152.730617450826
30
-4.15749229985702e-10
11
1126.214336052702
21
272.80444429288258
31
1.0014601753997758e-09
0
LINE
5
295
100
AcDbEntity
8
BEND
100
AcDbLine
10
-0.90477868423378482
20
141.50225342712574
30
2.2886619874590067e-11
11
-0.90477868423374042
21
48.819114736934495
31
1.0948260085562107e-11
0
LINE
5
296
100
AcDbEntity
8
BEND
100
AcDbLine
10
1101.0047786842342
20
48.819114736934921
30
1.407394644343981e-11
11
1101.0047786842342
21
141.50225342712176
31
2.2927304195502283e-11
0
LINE
5
297
100
AcDbEntity
8
BEND
100
AcDbLine
10
-2.2462688930043064e-13
20
47.914336052700861
30
1.2097770028082471e-11
11
1100.1000000000008
21
47.914336052701429
31
1.1671444386626532e-11
0
LINE
5
298
100
AcDbEntity
8
BEND
100
AcDbLine
10
-26.114336052702466
20
272.80444429260649
30
7.2620700058827016e-10
11
-26.114336052702406
21
152.73061745097593
31
-1.0170157444129772e-10
0
LINE
5
299
100
AcDbEntity
8
BEND
100
AcDbLine
10
-51.323893419531942
20
294.53932326014365
30
-1.5607956148900107e-09
11
-51.323893419531942
21
873.51805415248305
31
1.9237310800734526e-09
0
LINE
5
300
100
AcDbEntity
8
BEND
100
AcDbLine
10
1100.0999999999997
20
1026.0486150323629
30
1.4257979629773673e-11
11
-4.2632564145606011e-13
21
1026.0486150323622
31
1.46843052712296e-11
0
LINE
5
301
100
AcDbEntity
8
BEND
100
AcDbLine
10
1101.0047786842331
20
885.03758700005517
30
3.0396595132341142e-11
11
1101.0047786842331
21
1025.5421060802296
31
1.4978287956741501e-11
0
LINE
5
302
100
AcDbEntity
8
BEND
100
AcDbLine
10
-0.90477868423329266
20
1025.5421060802332
30
1.5697980574419774e-11
11
-0.90477868423324848
21
885.03758700005903
31
3.1214944950802224e-11
0
LINE
5
303
100
AcDbEntity
8
BEND
100
AcDbLine
10
1126.2143360527023
20
294.24815443522533
30
8.712160266004125e-10
11
1126.214336052702
21
873.80922297639006
31
8.712160266004125e-10
0
LINE
5
304
100
AcDbEntity
8
BEND
100
AcDbLine
10
1101.0047786842333
20
142.51527133138424
30
2.3291257061566533e-11
11
1101.0047786842331
21
283.01979041155761
31
3.2466574605349027e-11
0
LINE
5
305
100
AcDbEntity
8
BEND
100
AcDbLine
10
3.6549114277732821e-14
20
142.00876237925456
30
2.2049747569399966e-11
11
1100.1000000000004
21
142.00876237925513
31
2.1623421927944035e-11
0
LINE
5
306
100
AcDbEntity
8
BEND
100
AcDbLine
10
1101.0047786842338
20
284.0328083158218
30
3.0759488488183154e-11
11
1101.0047786842335
21
884.02456909579223
31
3.0759488488183154e-11
0
LINE
5
307
100
AcDbEntity
8
BEND
100
AcDbLine
10
1100.0999999999997
20
884.53107804792603
30
3.0465503278502188e-11
11
-2.8421709430404007e-13
21
884.53107804792569
31
3.0895316788456128e-11
0
LINE
5
308
100
AcDbEntity
8
BEND
100
AcDbLine
10
-0.90477868423327001
20
283.01979041156233
30
3.1433945563947861e-11
11
-0.90477868423320373
21
142.51527133138879
31
2.3529513036043864e-11
0
LINE
5
309
100
AcDbEntity
8
BEND
100
AcDbLine
10
-26.114336052702278
20
873.80922297639756
30
8.8972675388169866e-10
11
-26.114336052702129
21
294.24815443522277
31
8.897772690293191e-10
0
LINE
5
310
100
AcDbEntity
8
BEND
100
AcDbLine
10
2.0565535853168957e-15
20
283.52629936369169
30
3.1152049478995849e-11
11
1100.1000000000001
21
283.5262993636922
31
3.0725723837539932e-11
0
LINE
5
311
100
AcDbEntity
8
BEND
100
AcDbLine
10
-0.90477868423379215
20
884.0245690957961
30
3.113852232326961e-11
11
-0.90477868423364582
21
284.03280831582538
31
3.1131563282095476e-11
0
LINE
5
312
100
AcDbEntity
8
BEND_EXTENT
100
AcDbLine
10
1100.1000000000008
20
23.400000000000318
30
7.8159700933612345e-12
11
-2.8421709430404007e-13
21
23.399999999999466
31
7.9580786405131221e-12
0
LINE
5
313
100
AcDbEntity
8
BEND_EXTENT
100
AcDbLine
10
6.4909860621326335e-14
20
25.209557368466875
30
8.9528384705772623e-12
11
1100.1000000000004
21
25.209557368467728
31
8.5265128291213347e-12
0
LINE
5
314
100
AcDbEntity
8
BEND_EXTENT
100
AcDbLine
10
-7.0531695874232621e-13
20
1144.657377411618
30
3.2041036490682018e-11
11
1100.1000000000004
21
1144.6573774116187
31
3.1916691511924136e-11
0
LINE
5
315
100
AcDbEntity
8
BEND_EXTENT
100
AcDbLine
10
1100.1000000000001
20
1142.8478200431509
30
3.1832314562052624e-11
11
-4.2632564145606011e-13
21
1142.8478200431505
31
3.1974423109204508e-11
0
LINE
5
316
100
AcDbEntity
8
BEND_EXTENT
100
AcDbLine
10
1100.1000000000008
20
47.009557368467654
30
1.1795009413617796e-11
11
-2.8421709430404007e-13
21
47.009557368467085
31
1.2221335055073723e-11
0
LINE
5
317
100
AcDbEntity
8
BEND_EXTENT
100
AcDbLine
10
-6.9956251934346628e-13
20
1121.0478200431503
30
2.8705926524708048e-11
11
1100.1000000000004
21
1121.0478200431512
31
2.842170943040414e-11
0
LWPOLYLINE
5
318
100
AcDbEntity
8
BEND_EXTENT
100
AcDbPolyline
90
4
70
1
43
0.0
10
5.9155421222466785e-14
20
48.819114736934353
10
1100.1000000000004
20
48.819114736934921
10
1100.1000000000004
20
141.55637303713817
10
0
20
141.5563730371376
0
LWPOLYLINE
5
319
100
AcDbEntity
8
BEND_EXTENT
100
AcDbPolyline
90
4
70
1
43
0.0
10
1100.1000000000001
20
1119.2382626746833
10
-4.2632564145606011e-13
20
1119.2382626746826
10
-3.9230120135367526e-13
20
1026.5010043744794
10
1100.0999999999997
20
1026.5010043744801
0
LINE
5
320
100
AcDbEntity
8
BEND_EXTENT
100
AcDbLine
10
-52.228672105402445
20
47.219114736919039
30
-4.5272331469541531e-12
11
-52.228672105401614
21
130.76142390788021
31
4.4966595971991193e-12
0
LINE
5
321
100
AcDbEntity
8
BEND_EXTENT
100
AcDbLine
10
-50.419114736935839
20
131.09279475777555
30
5.9880980781321953e-12
11
-50.419114736935889
21
47.219114736928134
31
-3.2489574867491071e-12
0
LINE
5
322
100
AcDbEntity
8
BEND_EXTENT
100
AcDbLine
10
1152.328672105401
20
130.76142390789187
30
3.2664725483054253e-11
11
1152.3286721054019
21
47.219114736950019
31
2.3640832738900981e-11
0
LINE
5
323
100
AcDbEntity
8
BEND_EXTENT
100
AcDbLine
10
1150.5191147369346
20
47.219114736941776
30
2.3002045540880025e-11
11
1150.5191147369342
21
131.09279475778735
31
3.167066691715325e-11
0
LINE
5
324
100
AcDbEntity
8
BEND_EXTENT
100
AcDbLine
10
1152.3286721054051
20
873.2837395765664
30
5.0570402424208771e-11
11
1152.3286721054053
21
294.77363783507133
31
5.0286185329904731e-11
0
LINE
5
325
100
AcDbEntity
8
BEND_EXTENT
100
AcDbLine
10
1150.5191147369383
20
294.44226698517019
30
5.3271166084260289e-11
11
1150.5191147369383
21
873.61511042645645
31
5.3271166084260289e-11
0
LINE
5
326
100
AcDbEntity
8
BEND_EXTENT
100
AcDbLine
10
1152.3286721054126
20
1120.8382626746991
30
3.0959422917230006e-11
11
1152.3286721054142
21
1037.2959535037448
31
1.2698474608195434e-11
0
LINE
5
327
100
AcDbEntity
8
BEND_EXTENT
100
AcDbLine
10
1150.5191147369483
20
1036.9645826538417
30
1.2734703009146571e-11
11
1150.5191147369462
21
1120.8382626746907
31
3.1026737562870653e-11
0
LINE
5
328
100
AcDbEntity
8
BEND_EXTENT
100
AcDbLine
10
-52.228672105399838
20
1037.295953503723
30
2.1833902349745564e-11
11
-52.228672105400577
21
1120.8382626746675
31
3.48368344141554e-11
0
LINE
5
329
100
AcDbEntity
8
BEND_EXTENT
100
AcDbLine
10
-50.419114736934517
20
1120.8382626746761
30
3.4733992631726748e-11
11
-50.419114736934212
21
1036.9645826538308
31
2.1540102207081388e-11
0
LINE
5
330
100
AcDbEntity
8
BEND_EXTENT
100
AcDbLine
10
1152.328672105401
20
1014.8012765610029
30
4.8114502412583264e-12
11
1152.3286721054012
21
895.77841651931362
31
1.7956490852820179e-11
0
LINE
5
331
100
AcDbEntity
8
BEND_EXTENT
100
AcDbLine
10
1150.5191147369353
20
895.44704566940368
30
1.6749269466191143e-11
11
1150.5191147369353
21
1015.1326474108951
31
3.5331745810532805e-12
0
LINE
5
332
100
AcDbEntity
8
BEND_EXTENT
100
AcDbLine
10
-52.22867210540123
20
895.77841651929862
30
3.8886928007987972e-11
11
-52.22867210540084
21
1014.8012765609822
31
2.5599778849274095e-11
0
LINE
5
333
100
AcDbEntity
8
BEND_EXTENT
100
AcDbLine
10
-50.419114736934922
20
1015.1326474108869
30
2.1264766896974349e-11
11
-50.4191147369351
21
895.44704566939299
31
3.4765078876416253e-11
0
LINE
5
334
100
AcDbEntity
8
BEND_EXTENT
100
AcDbLine
10
-52.228672105404925
20
294.77363783505575
30
4.8905580582205384e-11
11
-52.228672105404925
21
873.28373957654958
31
4.8834526308629374e-11
0
LINE
5
335
100
AcDbEntity
8
BEND_EXTENT
100
AcDbLine
10
-50.419114736937942
20
873.61511042644668
30
5.0610181883866487e-11
11
-50.419114736937871
21
294.4422669851611
31
5.0610181883866487e-11
0
LINE
5
336
100
AcDbEntity
8
BEND_EXTENT
100
AcDbLine
10
1152.3286721054023
20
272.27896089232399
30
2.5417189578301231e-11
11
1152.3286721054021
21
153.25610085063317
31
1.7601219484940129e-11
0
LINE
5
337
100
AcDbEntity
8
BEND_EXTENT
100
AcDbLine
10
1150.5191147369364
20
152.92473000072931
30
2.1438851522207801e-11
11
1150.5191147369362
21
272.61033174221859
31
2.9396930162720923e-11
0
LINE
5
338
100
AcDbEntity
8
BEND_EXTENT
100
AcDbLine
10
-52.228672105400342
20
153.25610085062763
30
2.4178693377753894e-11
11
-52.228672105400371
21
272.27896089230524
31
3.0289360905290759e-11
0
LINE
5
339
100
AcDbEntity
8
BEND_EXTENT
100
AcDbLine
10
-50.419114736935235
20
272.61033174220978
30
2.8867574169607421e-11
11
-50.419114736935278
21
152.92473000072278
31
2.247268954776652e-11
0
LINE
5
340
100
AcDbEntity
8
BEND_EXTENT
100
AcDbLine
10
1127.119114736935
20
131.09279475778067
30
2.2726896731286527e-11
11
1127.1191147369357
21
47.219114736935097
31
1.3916166807861285e-11
0
LINE
5
341
100
AcDbEntity
8
BEND_EXTENT
100
AcDbLine
10
1125.3095573684666
20
47.219114736935239
30
1.3206325336264317e-11
11
1125.3095573684661
21
131.75553645757901
31
2.2088109533265571e-11
0
LINE
5
342
100
AcDbEntity
8
BEND_EXTENT
100
AcDbLine
10
-27.019114736936714
20
47.219114736934387
30
1.1663371679502454e-11
11
-27.019114736936523
21
131.09279475778209
31
2.0758318697231737e-11
0
LINE
5
343
100
AcDbEntity
8
BEND_EXTENT
100
AcDbLine
10
-25.209557368468616
20
131.75553645757816
30
2.1823431536708753e-11
11
-25.209557368468879
21
47.219114736934671
31
1.265743024540346e-11
0
LINE
5
344
100
AcDbEntity
8
BEND_EXTENT
100
AcDbLine
10
1127.1191147369389
20
873.61511042645077
30
3.2958712126231963e-11
11
1127.1191147369391
21
294.44226698516457
31
3.2958712126231963e-11
0
LINE
5
345
100
AcDbEntity
8
BEND_EXTENT
100
AcDbLine
10
1125.3095573684673
20
293.77952528537213
30
3.0898839456690817e-11
11
1125.3095573684668
21
874.27785212625065
31
3.0898839456690817e-11
0
LINE
5
346
100
AcDbEntity
8
BEND_EXTENT
100
AcDbLine
10
1127.1191147369361
20
1015.1326474108898
30
1.4697763817197395e-11
11
1127.1191147369361
21
895.44704566939924
31
2.7842804428759249e-11
0
LINE
5
347
100
AcDbEntity
8
BEND_EXTENT
100
AcDbLine
10
1125.3095573684677
20
894.78430396960323
30
2.8411939881530463e-11
11
1125.3095573684677
21
1015.7953891106882
31
1.505373644924058e-11
0
LINE
5
348
100
AcDbEntity
8
BEND_EXTENT
100
AcDbLine
10
-27.019114736935855
20
895.44704566940004
30
3.0705916997873143e-11
11
-27.01911473693567
21
1015.132647410894
31
1.7276659292007246e-11
0
LINE
5
349
100
AcDbEntity
8
BEND_EXTENT
100
AcDbLine
10
-25.209557368467124
20
1015.7953891106861
30
1.6636469565660021e-11
11
-25.209557368466953
21
894.78430396960209
31
3.0065727271525915e-11
0
LINE
5
350
100
AcDbEntity
8
BEND_EXTENT
100
AcDbLine
10
-27.019114736934963
20
1036.9645826538367
30
1.7680780472970803e-11
11
-27.019114736935485
21
1120.8382626746823
31
3.0874670897616166e-11
0
LINE
5
351
100
AcDbEntity
8
BEND_EXTENT
100
AcDbLine
10
-25.209557368466733
20
1120.8382626746823
30
3.0207835818677935e-11
11
-25.209557368466445
21
1036.3018409540373
31
1.7133849480692091e-11
0
LINE
5
352
100
AcDbEntity
8
BEND_EXTENT
100
AcDbLine
10
1127.119114736947
20
1120.8382626746836
30
4.6299151990127844e-11
11
1127.1191147369491
21
1036.9645826538351
31
2.8007117436403768e-11
0
LINE
5
353
100
AcDbEntity
8
BEND_EXTENT
100
AcDbLine
10
1125.3095573684818
20
1036.3018409540343
30
2.8767211249410507e-11
11
1125.3095573684795
21
1120.8382626746836
31
4.7099213832021095e-11
0
LINE
5
354
100
AcDbEntity
8
BEND_EXTENT
100
AcDbLine
10
-27.019114736938622
20
294.44226698516758
30
3.1416459733633243e-11
11
-27.01911473693869
21
873.61511042645259
31
3.1416459733633243e-11
0
LINE
5
355
100
AcDbEntity
8
BEND_EXTENT
100
AcDbLine
10
-25.209557368467088
20
874.2778521262461
30
2.9994672997949905e-11
11
-25.20955736846695
21
293.7795252853673
31
2.9994672997949905e-11
0
LINE
5
356
100
AcDbEntity
8
BEND_EXTENT
100
AcDbLine
10
-27.0191147369361
20
152.92473000073088
30
2.7011094771920618e-11
11
-27.019114736936057
21
272.61033174221808
31
3.3405979393761523e-11
0
LINE
5
357
100
AcDbEntity
8
BEND_EXTENT
100
AcDbLine
10
-25.209557368467795
20
273.27307344201324
30
3.3263169582446366e-11
11
-25.209557368467909
21
152.26198830093182
31
2.6797230687029454e-11
0
LINE
5
358
100
AcDbEntity
8
BEND_EXTENT
100
AcDbLine
10
1127.119114736937
20
272.61033174221609
30
3.182184374901581e-11
11
1127.1191147369375
21
152.92473000072647
31
2.4147982202806724e-11
0
LINE
5
359
100
AcDbEntity
8
BEND_EXTENT
100
AcDbLine
10
1125.3095573684689
20
152.2619883009348
30
2.3864466372665819e-11
11
1125.3095573684684
21
273.27307344201722
31
3.2035707833906977e-11
0
LINE
5
360
100
AcDbEntity
8
BEND_EXTENT
100
AcDbLine
10
-1.8095573684675634
20
48.819114736934495
30
1.2648361960692918e-11
11
-1.8095573684674437
21
141.44813381711373
31
2.273806880848634e-11
0
LINE
5
361
100
AcDbEntity
8
BEND_EXTENT
100
AcDbLine
10
1101.9095573684681
20
141.44813381710563
30
2.2807720553736214e-11
11
1101.9095573684681
21
48.819114736934921
31
1.5773347469711222e-11
0
LINE
5
362
100
AcDbEntity
8
BEND_EXTENT
100
AcDbLine
10
-1.8095573684670521
20
284.08692792584213
30
3.1193527364031536e-11
11
-1.8095573684671984
21
883.97044948578366
31
3.1193527364031536e-11
0
LWPOLYLINE
5
363
100
AcDbEntity
8
BEND_EXTENT
100
AcDbPolyline
90
4
70
1
43
0.0
10
-2.8653384223479252e-13
20
884.07868870580864
10
0
20
283.97868870580857
10
1100.1000000000001
20
283.97868870580913
10
1100.0999999999999
20
884.07868870580933
0
LINE
5
364
100
AcDbEntity
8
BEND_EXTENT
100
AcDbLine
10
-1.8095573684676249
20
885.09170661007613
30
3.1051418816879516e-11
11
-1.8095573684676591
21
1025.4879864702209
31
1.5561587177309328e-11
0
LWPOLYLINE
5
365
100
AcDbEntity
8
BEND_EXTENT
100
AcDbPolyline
90
4
70
1
43
0.0
10
-3.9208067650322806e-13
20
1025.5962256902453
10
-2.8675436708523971e-13
20
884.98346739004228
10
1100.0999999999999
20
884.98346739004273
10
1100.0999999999997
20
1025.5962256902458
0
LINE
5
366
100
AcDbEntity
8
BEND_EXTENT
100
AcDbLine
10
1101.9095573684681
20
1119.238262674683
30
4.6184576560243504e-11
11
1101.9095573684681
21
1026.6092435945004
31
2.5863054317504645e-11
0
LINE
5
367
100
AcDbEntity
8
BEND_EXTENT
100
AcDbLine
10
1101.9095573684676
20
1025.4879864702127
30
1.5062804733951122e-11
11
1101.9095573684676
21
885.0917066100676
31
3.0623690647097316e-11
0
LINE
5
368
100
AcDbEntity
8
BEND_EXTENT
100
AcDbLine
10
-1.8095573684679258
20
1026.609243594512
30
1.7408998290285589e-11
11
-1.8095573684679753
21
1119.2382626746826
31
3.2330395741247696e-11
0
LINE
5
369
100
AcDbEntity
8
BEND_EXTENT
100
AcDbLine
10
1101.9095573684669
20
883.97044948577559
30
3.0765799194249336e-11
11
1101.9095573684672
21
284.08692792583446
31
3.0765799194249336e-11
0
LINE
5
370
100
AcDbEntity
8
BEND_EXTENT
100
AcDbLine
10
1101.9095573684681
20
282.96567080154205
30
3.2684264580801607e-11
11
1101.9095573684681
21
142.5693909413971
31
2.3447209015920304e-11
0
LWPOLYLINE
5
371
100
AcDbEntity
8
BEND_EXTENT
100
AcDbPolyline
90
4
70
1
43
0.0
10
1100.1000000000004
20
142.46115172137209
10
1100.1000000000001
20
283.07391002157522
10
0
20
283.07391002157453
10
3.6331722387161851e-14
20
142.46115172137166
0
LINE
5
372
100
AcDbEntity
8
BEND_EXTENT
100
AcDbLine
10
-1.8095573684680124
20
142.56939094140563
30
2.3590720091398461e-11
11
-1.8095573684680466
21
282.96567080154978
31
3.1122473090455526e-11
0
ENDSEC
0
SECTION
2
OBJECTS
0
DICTIONARY
5
C
100
AcDbDictionary
3
ACAD_GROUP
350
D
3
ACAD_MLINESTYLE
350
17
0
DICTIONARY
5
D
100
AcDbDictionary
0
DICTIONARY
5
1A
330
C
100
AcDbDictionary
0
DICTIONARY
5
17
100
AcDbDictionary
0
ENDSEC
0
EOF
