0
SECTION
2
HEADER
9
$INSUNITS
70
4
9
$ACADVER
1
AC1014
9
$HANDSEED
5
FFFF
0
ENDSEC
0
SECTION
2
TABLES
0
TABLE
2
VPORT
5
8
100
AcDbSymbolTable
0
ENDTAB
0
TABLE
2
LTYPE
5
5
100
AcDbSymbolTable
0
LTYPE
5
14
100
AcDbSymbolTableRecord
100
AcDbLinetypeTableRecord
2
BYBLOCK
70
0
0
LTYPE
5
15
100
AcDbSymbolTableRecord
100
AcDbLinetypeTableRecord
2
BYLAYER
70
0
0
LTYPE
5
16
100
AcDbSymbolTableRecord
100
AcDbLinetypeTableRecord
2
DASHED
70
0
3
Dashed __ __ __ __ __ __ __ __ __ __ __ __ __ _
72
65
73
2
40
0.75
49
0.5
74
0
49
-0.25
74
0
0
ENDTAB
0
TABLE
2
LAYER
5
2
100
AcDbSymbolTable
70
2
0
LAYER
5
50
100
AcDbSymbolTableRecord
100
AcDbLayerTableRecord
2
0
70
0
62
7
6
CONTINUOUS
0
ENDTAB
0
TABLE
2
STYLE
5
3
100
AcDbSymbolTable
70
1
0
STYLE
5
11
100
AcDbSymbolTableRecord
100
AcDbTextStyleTableRecord
2
STANDARD
70
0
0
ENDTAB
0
TABLE
2
VIEW
5
6
100
AcDbSymbolTable
70
0
0
ENDTAB
0
TABLE
2
UCS
5
7
100
AcDbSymbolTable
70
0
0
ENDTAB
0
TABLE
2
APPID
5
9
100
AcDbSymbolTable
70
2
0
APPID
5
12
100
AcDbSymbolTableRecord
100
AcDbRegAppTableRecord
2
ACAD
70
0
0
ENDTAB
0
TABLE
2
DIMSTYLE
5
A
100
AcDbSymbolTable
70
1
0
ENDTAB
0
TABLE
2
BLOCK_RECORD
5
1
100
AcDbSymbolTable
70
1
0
BLOCK_RECORD
5
1F
100
AcDbSymbolTableRecord
100
AcDbBlockTableRecord
2
*MODEL_SPACE
0
BLOCK_RECORD
5
1B
100
AcDbSymbolTableRecord
100
AcDbBlockTableRecord
2
*PAPER_SPACE
0
ENDTAB
0
ENDSEC
0
SECTION
2
BLOCKS
0
BLOCK
5
20
100
AcDbEntity
100
AcDbBlockBegin
2
*MODEL_SPACE
0
ENDBLK
5
21
100
AcDbEntity
100
AcDbBlockEnd
0
BLOCK
5
1C
100
AcDbEntity
100
AcDbBlockBegin
2
*PAPER_SPACE
0
ENDBLK
5
1D
100
AcDbEntity
100
AcDbBlockEnd
0
ENDSEC
0
SECTION
2
ENTITIES
0
LINE
5
100
100
AcDbEntity
8
OUTER_PROFILES
100
AcDbLine
10
-29.984993795384469
20
29.48593413112453
30
0
11
-29.98499379538444
21
29.406966982026695
31
0
0
LINE
5
101
100
AcDbEntity
8
OUTER_PROFILES
100
AcDbLine
10
-29.98499379538444
20
29.406966982026695
30
0
11
-29.984993795384423
21
24.993033017973062
31
0
0
LINE
5
102
100
AcDbEntity
8
OUTER_PROFILES
100
AcDbLine
10
-29.984993795384423
20
24.993033017973062
30
0
11
-29.984993795384447
21
24.91406586888381
31
0
0
SPLINE
5
103
100
AcDbEntity
8
OUTER_PROFILES
100
AcDbSpline
70
0
71
3
72
18
73
14
74
0
42
0.000000001
43
0.0000000001
44
0.0000000001
40
0
40
0
40
0
40
0
40
0.97345598226486663
40
0.97345598226486663
40
1.9427065959243639
40
1.9427065959243639
40
2.8909650794548503
40
2.8909650794548503
40
3.2606001816954775
40
3.2606001816954775
40
3.3950856027954872
40
3.3950856027954872
40
3.4446212796781999
40
3.4446212796781999
40
3.4446212796781999
40
3.4446212796781999
10
-29.984993795384455
20
24.914065868875195
30
0
10
-29.984993795384433
20
21.669212594658958
30
0
10
-29.355502496411255
20
18.455483810635531
30
0
10
-26.915913417473327
20
12.45623538524625
30
0
10
-25.134571543695799
20
9.7265103254211294
30
0
10
-20.688619387932512
20
5.1312361116166461
30
0
10
-18.094611607588455
20
3.2972864870951035
30
0
10
-14.093366703609529
20
1.4485395102881338
30
0
10
-12.959771516112452
20
1.0193972061193346
30
0
10
-11.323645942470561
20
0.51904103654521805
30
0
10
-10.956132711913346
20
0.41568238389739776
30
0
10
-10.279035540754546
20
0.23552419104095476
30
0
10
-10.11977663013977
20
0.19390381399957085
30
0
10
-9.9899899088452564
20
0.1589658780700276
30
0
0
SPLINE
5
104
100
AcDbEntity
8
OUTER_PROFILES
100
AcDbSpline
70
0
71
3
72
10
73
6
74
0
42
0.000000001
43
0.0000000001
44
0.0000000001
40
0
40
0
40
0
40
0
40
0.030857654919076133
40
0.030857654919076133
40
0.064212868105913951
40
0.064212868105913951
40
0.064212868105913951
40
0.064212868105913951
10
-9.9899899088452564
20
0.1589658780700276
30
0
10
-9.8878911218341852
20
0.12368781981219712
30
0
10
-9.8051837581626149
20
0.090066522080833877
30
0
10
-9.5057055903796179
20
0.0098712969245439066
30
0
10
-9.4271813406077118
20
0.0022796700857693484
30
0
10
-9.3821807101932908
20
-4.7444706029720451e-14
30
0
0
SPLINE
5
105
100
AcDbEntity
8
OUTER_PROFILES
100
AcDbSpline
70
0
71
3
72
22
73
18
74
0
42
0.000000001
43
0.0000000001
44
0.0000000001
40
-6.54927684115777
40
-6.54927684115777
40
-6.54927684115777
40
-6.54927684115777
40
-4.8989339640147422
40
-4.8989339640147422
40
-3.7764341077089401
40
-3.7764341077089401
40
-2.0071006808404817
40
-2.0071006808404817
40
-0.23776159038526451
40
-0.23776159038526451
40
-0.060828244022982328
40
-0.060828244022982328
40
-0.027787301343978884
40
-0.027787301343978884
40
-0.01454260805404587
40
-0.01454260805404587
40
-1.0000063524162626e-06
40
-1.0000063524162626e-06
40
-1.0000063524162626e-06
40
-1.0000063524162626e-06
10
-4.3301270189225063
20
3.4918187861564948e-14
30
0
10
-4.5006910460812728
20
0.00080121275806455908
30
0
10
-4.6599851528453948
20
-0.0028146136094017067
30
0
10
-5.1670090903664745
20
-0.0023103957355541382
30
0
10
-5.3260453257152829
20
-0.00042103018824235505
30
0
10
-6.0141435312516789
20
0.00048979731682941008
30
0
10
-6.4351488814190798
20
2.0307996173585252e-07
30
0
10
-7.2771601953218727
20
-1.9012598606593656e-07
30
0
10
-7.6981665278081053
20
2.7664953341499654e-05
30
0
10
-8.1612733558140516
20
-1.4795497129682644e-05
30
0
10
-8.6379617953278913
20
-1.019075597241681e-06
30
0
10
-8.7717296663978406
20
2.7028531306427794e-05
30
0
10
-8.9392543338095383
20
-0.00067364184375584557
30
0
10
-9.1173953295976045
20
0.00070661349757195069
30
0
10
-9.1647852592920991
20
0.0012698773027963739
30
0
10
-9.2896230566657039
20
-0.00053495495388033326
30
0
10
-9.3337713759855205
20
-0.002452355093776656
30
0
10
-9.3821807101932873
20
-4.7521483826823013e-14
30
0
0
LINE
5
106
100
AcDbEntity
8
OUTER_PROFILES
100
AcDbLine
10
-4.3301270189225063
20
3.4918187861564948e-14
30
0
11
-2.0872192862952943e-13
21
3.0583319636559723e-14
31
0
0
LINE
5
107
100
AcDbEntity
8
OUTER_PROFILES
100
AcDbLine
10
-2.0872192862952943e-13
20
3.0583319636559723e-14
30
0
11
10.339745962155524
21
-1.2819751242556326e-14
31
0
0
LINE
5
108
100
AcDbEntity
8
OUTER_PROFILES
100
AcDbLine
10
10.339745962155524
20
-1.2819751242556326e-14
30
0
11
14.66987298107744
21
4.3259393813209645e-14
31
0
0
SPLINE
5
109
100
AcDbEntity
8
OUTER_PROFILES
100
AcDbSpline
70
0
71
3
72
24
73
20
74
0
42
0.000000001
43
0.0000000001
44
0.0000000001
40
1.0000075340577119e-06
40
1.0000075340577119e-06
40
1.0000075340577119e-06
40
1.0000075340577119e-06
40
0.003974892784613826
40
0.003974892784613826
40
0.0070909504287931524
40
0.0070909504287931524
40
0.008237467815649796
40
0.008237467815649796
40
0.0099746626038801356
40
0.0099746626038801356
40
0.060354656117688171
40
0.060354656117688171
40
0.10080035448163573
40
0.10080035448163573
40
0.12830603776651306
40
0.12830603776651306
40
0.14654093879320101
40
0.14654093879320101
40
0.17350633685216987
40
0.17350633685216987
40
0.17350633685216987
40
0.17350633685216987
10
20.32473975713954
20
0.15758408318799721
30
0
10
20.239867911532968
20
0.12797425381711605
30
0
10
20.059291949419396
20
0.061389455046905149
30
0
10
19.757331384086257
20
-0.004983941109886203
30
0
10
19.716421703383823
20
0.0026066654235545883
30
0
10
19.351431566803065
20
-6.1446497499062502e-05
30
0
10
19.253254474575403
20
8.5096185786781575e-05
30
0
10
19.00632520730159
20
-1.8889175059655372e-05
30
0
10
18.788559167281537
20
-2.2617704003025096e-05
30
0
10
18.003138436118352
20
-0.00017455898611906662
30
0
10
17.296442493199233
20
-4.1486645230293107e-08
30
0
10
17.107670406170534
20
4.7130530589356567e-08
30
0
10
16.239821084460733
20
-6.8864486557629334e-07
30
0
10
15.720642115419995
20
7.616917496733322e-07
30
0
10
15.51048637651769
20
5.2686641973664905e-05
30
0
10
15.161007853077564
20
-4.2559346553616706e-05
30
0
10
15.089068923813475
20
-0.00032872550451479299
30
0
10
14.831384023248004
20
-0.00027757227717350259
30
0
10
14.759755294672409
20
0.00042233623286142702
30
0
10
14.66987298107744
20
4.3259393813209651e-14
30
0
0
SPLINE
5
110
100
AcDbEntity
8
OUTER_PROFILES
100
AcDbSpline
70
0
71
3
72
18
73
14
74
0
42
0.000000001
43
0.0000000001
44
0.0000000001
40
0.022737300621875432
40
0.022737300621875432
40
0.022737300621875432
40
0.022737300621875432
40
0.042220059771124537
40
0.042220059771124537
40
0.074514962024364945
40
0.074514962024364945
40
0.18354931204188529
40
0.18354931204188529
40
0.36719211925898099
40
0.36719211925898099
40
0.50858375680828982
40
0.50858375680828982
40
0.65219475377713643
40
0.65219475377713643
40
0.65219475377713643
40
0.65219475377713643
10
20.324739757539035
20
0.15758408332738227
30
0
10
20.54682534811603
20
0.21745711588250671
30
0
10
20.849200796705176
20
0.29521123323347886
30
0
10
21.804726486878067
20
0.55831213997321605
30
0
10
22.348582361387056
20
0.72313454440510405
30
0
10
24.828296052588108
20
1.5630747955003343
30
0
10
26.620996640178927
20
2.4019592313473126
30
0
10
31.183841303067894
20
5.2260161498193547
30
0
10
33.66380777774728
20
7.5394973376412278
30
0
10
37.127885300773059
20
12.380950752753286
30
0
10
38.301737495430643
20
14.705694470775338
30
0
10
39.911208653044923
20
19.670774891992806
30
0
10
40.324739757539206
20
22.284155400398589
30
0
10
40.324739757539199
20
24.914065868875362
30
0
0
LINE
5
111
100
AcDbEntity
8
OUTER_PROFILES
100
AcDbLine
10
40.324739757539199
20
24.914065868875358
30
0
11
40.324739757539163
21
24.993033017973197
31
0
0
LINE
5
112
100
AcDbEntity
8
OUTER_PROFILES
100
AcDbLine
10
40.324739757539163
20
24.993033017973197
30
0
11
40.324739757539156
21
29.406966982026901
31
0
0
LINE
5
113
100
AcDbEntity
8
OUTER_PROFILES
100
AcDbLine
10
40.324739757539156
20
29.406966982026901
30
0
11
40.324739757539163
21
29.485934131124772
31
0
0
SPLINE
5
114
100
AcDbEntity
8
OUTER_PROFILES
100
AcDbSpline
70
0
71
3
72
18
73
14
74
0
42
0.000000001
43
0.0000000001
44
0.0000000001
40
0
40
0
40
0
40
0
40
0.9734559822648543
40
0.9734559822648543
40
1.9427065959243293
40
1.9427065959243293
40
2.8909650794548591
40
2.8909650794548591
40
3.26060018169568
40
3.26060018169568
40
3.395085602795616
40
3.395085602795616
40
3.4446212796785729
40
3.4446212796785729
40
3.4446212796785729
40
3.4446212796785729
10
40.324739757539163
20
29.485934131124772
30
0
10
40.324739757539128
20
32.730787405340969
30
0
10
39.695248458566006
20
35.944516189364364
30
0
10
37.255659379628021
20
41.943764614753754
30
0
10
35.474317505850379
20
44.673489674578867
30
0
10
31.028365350087288
20
49.268763888383219
30
0
10
28.434357569743298
20
51.102713512904792
30
0
10
24.433112665763485
20
52.951460489712154
30
0
10
23.299517478265646
20
53.380602793881089
30
0
10
21.663391904624447
20
53.880958963454859
30
0
10
21.295878674069513
20
53.984317616102111
30
0
10
20.618781502905428
20
54.164475808959914
30
0
10
20.459522592289257
20
54.206096186001645
30
0
10
20.329735870991801
20
54.241034121931726
30
0
0
SPLINE
5
115
100
AcDbEntity
8
OUTER_PROFILES
100
AcDbSpline
70
0
71
3
72
10
73
6
74
0
42
0.000000001
43
0.0000000001
44
0.0000000001
40
-0.026021002538801019
40
-0.026021002538801019
40
-0.026021002538801019
40
-0.026021002538801019
40
-0.013517020251300868
40
-0.013517020251300868
40
-9.9994458736331086e-07
40
-9.9994458736331086e-07
40
-9.9994458736331086e-07
40
-9.9994458736331086e-07
10
20.329735870991801
20
54.241034121931726
30
0
10
20.227637069153541
20
54.276312185374643
30
0
10
20.144929709762422
20
54.309933483123203
30
0
10
19.845451584279921
20
54.390128691998768
30
0
10
19.766927361269605
20
54.397720326951898
30
0
10
19.72192667234804
20
54.399999999999935
30
0
0
SPLINE
5
116
100
AcDbEntity
8
OUTER_PROFILES
100
AcDbSpline
70
0
71
3
72
24
73
20
74
0
42
0.000000001
43
0.0000000001
44
0.0000000001
40
1.0000075663522307e-06
40
1.0000075663522307e-06
40
1.0000075663522307e-06
40
1.0000075663522307e-06
40
0.026994263225932982
40
0.026994263225932982
40
0.04518577545141339
40
0.04518577545141339
40
0.072449978315580255
40
0.072449978315580255
40
0.11184991508037004
40
0.11184991508037004
40
0.15124995544748518
40
0.15124995544748518
40
0.18137903988830509
40
0.18137903988830509
40
0.18973072605580174
40
0.18973072605580174
40
0.19307855789293707
40
0.19307855789293707
40
0.19675420800192231
40
0.19675420800192231
40
0.19675420800192231
40
0.19675420800192231
10
14.669872981077285
20
54.399999999999942
30
0
10
14.759848170858984
20
54.399577334674383
30
0
10
14.831454330159028
20
54.400278922749379
30
0
10
15.089539042003075
20
54.400327201287297
30
0
10
15.160918360973287
20
54.400040934064116
30
0
10
15.511875397389865
20
54.399949269766864
30
0
10
15.722378399502341
20
54.399999270408316
30
0
10
16.237082648048954
20
54.400000652366401
30
0
10
17.111698597895078
20
54.399999954201988
30
0
10
17.280101276937785
20
54.400000032843401
30
0
10
18.148723751435277
20
54.40007392308484
30
0
10
18.696128861378003
20
54.400057402913646
30
0
10
19.014489926666144
20
54.399993306821635
30
0
10
19.111475629776496
20
54.399972971468301
30
0
10
19.279000295208668
20
54.400673641852933
30
0
10
19.457141292060381
20
54.399293386498826
30
0
10
19.504531221864148
20
54.3987301227004
30
0
10
19.62936901895905
20
54.400534954959525
30
0
10
19.673517338222627
20
54.402452355087654
30
0
10
19.721926672348044
20
54.399999999999935
30
0
0
LINE
5
117
100
AcDbEntity
8
OUTER_PROFILES
100
AcDbLine
10
14.669872981077285
20
54.399999999999942
30
0
11
10.339745962155201
21
54.399999999999935
31
0
0
LINE
5
118
100
AcDbEntity
8
OUTER_PROFILES
100
AcDbLine
10
10.339745962155201
20
54.399999999999935
30
0
11
-4.4630965589931293e-13
21
54.399999999999906
31
0
0
LINE
5
119
100
AcDbEntity
8
OUTER_PROFILES
100
AcDbLine
10
-4.4630965589931293e-13
20
54.399999999999906
30
0
11
-4.3301270189226679
21
54.399999999999892
31
0
0
SPLINE
5
120
100
AcDbEntity
8
OUTER_PROFILES
100
AcDbSpline
70
0
71
3
72
22
73
18
74
0
42
0.000000001
43
0.0000000001
44
0.0000000001
40
-0.30951621246642247
40
-0.30951621246642247
40
-0.30951621246642247
40
-0.30951621246642247
40
-0.27755321166599178
40
-0.27755321166599178
40
-0.24175219667872586
40
-0.24175219667872586
40
-0.17369054317519086
40
-0.17369054317519086
40
-0.11607626923773343
40
-0.11607626923773343
40
-0.034862744309871407
40
-0.034862744309871407
40
-0.02836783087995115
40
-0.02836783087995115
40
-0.01661619878285675
40
-0.01661619878285675
40
-9.9999999997324451e-07
40
-9.9999999997324451e-07
40
-9.9999999997324451e-07
40
-9.9999999997324451e-07
10
-9.9849937953661065
20
54.24241591667888
30
0
10
-9.8843964134896076
20
54.277512024482007
30
0
10
-9.7791715286151106
20
54.319286260352641
30
0
10
-9.4294657200348571
20
54.407044404130872
30
0
10
-9.3719999854362435
20
54.402113844630982
30
0
10
-8.9887492504676736
20
54.395514761795226
30
0
10
-8.7375289571341526
20
54.399975918924738
30
0
10
-8.2737190884316227
20
54.400044529637611
30
0
10
-8.1872510924508788
20
54.400009307681202
30
0
10
-7.6975023088896695
20
54.39999077804147
30
0
10
-7.6884891931079018
20
54.39999955323686
30
0
10
-5.8377136757261239
20
54.400000036919607
30
0
10
-5.7006613546479201
20
54.399866024139726
30
0
10
-5.3156333563343665
20
54.40056270336229
30
0
10
-5.1519760895037381
20
54.402409963721475
30
0
10
-4.6571699704928822
20
54.402696017530943
30
0
10
-4.4985346261556884
20
54.399208715069719
30
0
10
-4.3301270189226679
20
54.399999999999878
30
0
0
SPLINE
5
121
100
AcDbEntity
8
OUTER_PROFILES
100
AcDbSpline
70
0
71
3
72
18
73
14
74
0
42
0.000000001
43
0.0000000001
44
0.0000000001
40
0.022737300634762394
40
0.022737300634762394
40
0.022737300634762394
40
0.022737300634762394
40
0.042220059800373251
40
0.042220059800373251
40
0.074514962101547413
40
0.074514962101547413
40
0.18354931223048354
40
0.18354931223048354
40
0.36719211988030409
40
0.36719211988030409
40
0.50858375785523124
40
0.50858375785523124
40
0.65219475525894177
40
0.65219475525894177
40
0.65219475525894177
40
0.65219475525894177
10
-9.9849937953843089
20
54.242415916672506
30
0
10
-10.207079385893227
20
54.182542884135714
30
0
10
-10.509454833869365
20
54.104788766941887
30
0
10
-11.464980523083687
20
53.841687860498197
30
0
10
-12.008836397080087
20
53.676865456261353
30
0
10
-14.488550085380581
20
52.836925206422009
30
0
10
-16.281250670778554
20
51.998040772162938
30
0
10
-20.844095332643782
20
49.173983856939472
30
0
10
-23.324061808310113
20
46.860502670131439
30
0
10
-26.788139334381221
20
42.019049255020477
30
0
10
-27.961991530563139
20
39.694305535801618
30
0
10
-29.571462690324211
20
34.729225111572944
30
0
10
-29.984993795384504
20
32.11584460140125
30
0
10
-29.984993795384494
20
29.48593413112453
30
0
0
LWPOLYLINE
5
122
100
AcDbEntity
8
INTERIOR_PROFILES
100
AcDbPolyline
90
2
70
1
43
0.0
10
-22.943025208052074
20
24.507408281691031
42
-1.0009674072017736
10
-17.032175056877531
20
29.898307154066707
42
-1.0009674071982968
0
LWPOLYLINE
5
123
100
AcDbEntity
8
INTERIOR_PROFILES
100
AcDbPolyline
90
2
70
1
43
0.0
10
33.282771170505583
20
24.507408282006054
42
-1.0009674071987278
10
27.371921018746505
20
29.898307153740838
42
-1.0009674072016586
0
LINE
5
124
100
AcDbEntity
8
BEND
100
AcDbLine
10
-7.1575604073477761
20
0.2077438898540418
30
-3.0167025815962857e-14
11
-7.1575604073293198
21
54.192256110137166
31
-3.0176630962172458e-14
0
LINE
5
125
100
AcDbEntity
8
BEND
100
AcDbLine
10
17.497306369502319
20
54.192256110145998
30
2.184348868103365e-13
11
17.497306369483901
21
0.20774388986265713
31
2.1844735513579749e-13
0
LINE
5
126
100
AcDbEntity
8
BEND_EXTENT
100
AcDbLine
10
20.324739757538886
20
53.903814843563595
30
2.5324638275276098e-13
11
20.324739757539049
21
0.49618515643638617
31
2.5324638275275997e-13
0
LINE
5
127
100
AcDbEntity
8
BEND_EXTENT
100
AcDbLine
10
-4.3301270189226511
20
54.274685927665388
30
1.2511246945723202e-13
11
-4.3301270189224912
21
0.12531407233447922
31
1.2511246945723101e-13
0
LINE
5
128
100
AcDbEntity
8
BEND_EXTENT
100
AcDbLine
10
14.669872981077495
20
0.12531407233446146
30
4.8286948155037081e-15
11
14.669872981077335
21
54.274685927665445
31
4.8286948155047218e-15
0
LINE
5
129
100
AcDbEntity
8
BEND_EXTENT
100
AcDbLine
10
-9.9849937953841046
20
0.4961851564363684
30
5.433046546000021e-14
11
-9.9849937953842645
21
53.903814843563538
31
5.4330465460001201e-14
0
ENDSEC
0
SECTION
2
OBJECTS
0
DICTIONARY
5
C
100
AcDbDictionary
3
ACAD_GROUP
350
D
3
ACAD_MLINESTYLE
350
17
0
DICTIONARY
5
D
100
AcDbDictionary
0
DICTIONARY
5
1A
330
C
100
AcDbDictionary
0
DICTIONARY
5
17
100
AcDbDictionary
0
ENDSEC
0
EOF
